%TF.GenerationSoftware,KiCad,Pcbnew,9.0.6*%
%TF.CreationDate,2026-04-29T19:41:36+05:30*%
%TF.ProjectId,Tamagotchi,54616d61-676f-4746-9368-692e6b696361,rev?*%
%TF.SameCoordinates,Original*%
%TF.FileFunction,Soldermask,Top*%
%TF.FilePolarity,Negative*%
%FSLAX46Y46*%
G04 Gerber Fmt 4.6, Leading zero omitted, Abs format (unit mm)*
G04 Created by KiCad (PCBNEW 9.0.6) date 2026-04-29 19:41:36*
%MOMM*%
%LPD*%
G01*
G04 APERTURE LIST*
G04 Aperture macros list*
%AMRoundRect*
0 Rectangle with rounded corners*
0 $1 Rounding radius*
0 $2 $3 $4 $5 $6 $7 $8 $9 X,Y pos of 4 corners*
0 Add a 4 corners polygon primitive as box body*
4,1,4,$2,$3,$4,$5,$6,$7,$8,$9,$2,$3,0*
0 Add four circle primitives for the rounded corners*
1,1,$1+$1,$2,$3*
1,1,$1+$1,$4,$5*
1,1,$1+$1,$6,$7*
1,1,$1+$1,$8,$9*
0 Add four rect primitives between the rounded corners*
20,1,$1+$1,$2,$3,$4,$5,0*
20,1,$1+$1,$4,$5,$6,$7,0*
20,1,$1+$1,$6,$7,$8,$9,0*
20,1,$1+$1,$8,$9,$2,$3,0*%
G04 Aperture macros list end*
%ADD10RoundRect,0.102000X-0.975000X-0.975000X0.975000X-0.975000X0.975000X0.975000X-0.975000X0.975000X0*%
%ADD11C,2.154000*%
%ADD12C,3.200000*%
%ADD13R,2.000000X2.000000*%
%ADD14C,2.000000*%
%ADD15RoundRect,0.152400X-1.063600X-0.609600X1.063600X-0.609600X1.063600X0.609600X-1.063600X0.609600X0*%
%ADD16C,1.524000*%
%ADD17RoundRect,0.152400X1.063600X0.609600X-1.063600X0.609600X-1.063600X-0.609600X1.063600X-0.609600X0*%
%ADD18C,1.700000*%
%ADD19RoundRect,0.275000X-0.975000X-0.275000X0.975000X-0.275000X0.975000X0.275000X-0.975000X0.275000X0*%
%ADD20C,3.000000*%
%ADD21RoundRect,0.102000X-0.754000X-0.754000X0.754000X-0.754000X0.754000X0.754000X-0.754000X0.754000X0*%
%ADD22C,1.712000*%
%ADD23R,1.700000X1.700000*%
G04 APERTURE END LIST*
D10*
%TO.C,SW2*%
X189250000Y-101600000D03*
D11*
X201750000Y-101600000D03*
X189250000Y-106600000D03*
X201750000Y-106600000D03*
%TD*%
D12*
%TO.C,REF\u002A\u002A*%
X253050000Y-74550000D03*
%TD*%
D13*
%TO.C,BZ1*%
X245500000Y-84600000D03*
D14*
X253100000Y-84600000D03*
%TD*%
D12*
%TO.C,REF\u002A\u002A*%
X189800000Y-74550000D03*
%TD*%
D10*
%TO.C,SW5*%
X243950000Y-99250000D03*
D11*
X256450000Y-99250000D03*
X243950000Y-104250000D03*
X256450000Y-104250000D03*
%TD*%
D10*
%TO.C,SW3*%
X204250000Y-114050000D03*
D11*
X216750000Y-114050000D03*
X204250000Y-119050000D03*
X216750000Y-119050000D03*
%TD*%
D15*
%TO.C,U1*%
X240805000Y-128570000D03*
D16*
X239970000Y-128570000D03*
D15*
X240805000Y-126030000D03*
D16*
X239970000Y-126030000D03*
D15*
X240805000Y-123490000D03*
D16*
X239970000Y-123490000D03*
D15*
X240805000Y-120950000D03*
D16*
X239970000Y-120950000D03*
D15*
X240805000Y-118410000D03*
D16*
X239970000Y-118410000D03*
D15*
X240805000Y-115870000D03*
D16*
X239970000Y-115870000D03*
D15*
X240805000Y-113330000D03*
D16*
X239970000Y-113330000D03*
X224730000Y-113330000D03*
D17*
X223895000Y-113330000D03*
D16*
X224730000Y-115870000D03*
D17*
X223895000Y-115870000D03*
D16*
X224730000Y-118410000D03*
D17*
X223895000Y-118410000D03*
D16*
X224730000Y-120950000D03*
D17*
X223895000Y-120950000D03*
D16*
X224730000Y-123490000D03*
D17*
X223895000Y-123490000D03*
D16*
X224730000Y-126030000D03*
D17*
X223895000Y-126030000D03*
D16*
X224730000Y-128570000D03*
D17*
X223895000Y-128570000D03*
D18*
X233620000Y-129586000D03*
X231080000Y-129586000D03*
X233620000Y-127046000D03*
X231080000Y-127046000D03*
X233620000Y-124506000D03*
X231080000Y-124506000D03*
D19*
X236795000Y-121336000D03*
X236795000Y-123241000D03*
%TD*%
D10*
%TO.C,SW1*%
X204200000Y-89100000D03*
D11*
X216700000Y-89100000D03*
X204200000Y-94100000D03*
X216700000Y-94100000D03*
%TD*%
D20*
%TO.C,U2*%
X205800000Y-52587500D03*
X205800000Y-82287500D03*
X237300000Y-52587500D03*
X237300000Y-82287500D03*
D21*
X217740000Y-51887500D03*
D22*
X220280000Y-51887500D03*
X222820000Y-51887500D03*
X225360000Y-51887500D03*
%TD*%
D10*
%TO.C,SW6*%
X244050000Y-114050000D03*
D11*
X256550000Y-114050000D03*
X244050000Y-119050000D03*
X256550000Y-119050000D03*
%TD*%
D10*
%TO.C,SW4*%
X219200000Y-101550000D03*
D11*
X231700000Y-101550000D03*
X219200000Y-106550000D03*
X231700000Y-106550000D03*
%TD*%
D12*
%TO.C,REF\u002A\u002A*%
X214650000Y-126650000D03*
%TD*%
D23*
%TO.C,BT1*%
X197300000Y-68490000D03*
D18*
X197300000Y-65950000D03*
%TD*%
M02*
