%TF.GenerationSoftware,KiCad,Pcbnew,9.0.6*%
%TF.CreationDate,2026-04-29T19:41:36+05:30*%
%TF.ProjectId,Tamagotchi,54616d61-676f-4746-9368-692e6b696361,rev?*%
%TF.SameCoordinates,Original*%
%TF.FileFunction,Legend,Top*%
%TF.FilePolarity,Positive*%
%FSLAX46Y46*%
G04 Gerber Fmt 4.6, Leading zero omitted, Abs format (unit mm)*
G04 Created by KiCad (PCBNEW 9.0.6) date 2026-04-29 19:41:36*
%MOMM*%
%LPD*%
G01*
G04 APERTURE LIST*
%ADD10C,0.100000*%
%ADD11C,0.150000*%
%ADD12C,1.000000*%
%ADD13C,0.250000*%
%ADD14C,0.200000*%
%ADD15C,0.101600*%
%ADD16C,0.127000*%
%ADD17C,0.120000*%
%ADD18C,0.504000*%
G04 APERTURE END LIST*
D10*
X171950000Y-36100000D02*
X271950000Y-36100000D01*
X271950000Y-136100000D01*
X171950000Y-136100000D01*
X171950000Y-36100000D01*
G36*
X207867594Y-45270111D02*
G01*
X207867594Y-44977020D01*
X209521545Y-44977020D01*
X209521545Y-45270111D01*
X208849267Y-45270111D01*
X208849267Y-47990000D01*
X208541887Y-47990000D01*
X208541887Y-45270111D01*
X207867594Y-45270111D01*
G37*
G36*
X211139076Y-45717369D02*
G01*
X211303856Y-45756716D01*
X211455949Y-45821306D01*
X211595397Y-45910386D01*
X211725273Y-46026347D01*
X211846310Y-46172283D01*
X211846310Y-45762505D01*
X212129143Y-45762505D01*
X212129143Y-47990000D01*
X211846310Y-47990000D01*
X211846310Y-47606782D01*
X211718236Y-47743689D01*
X211583534Y-47853049D01*
X211441477Y-47937426D01*
X211288511Y-47998796D01*
X211125647Y-48035966D01*
X210950732Y-48048618D01*
X210720979Y-48026840D01*
X210512503Y-47963083D01*
X210320649Y-47857124D01*
X210142166Y-47705334D01*
X209995023Y-47523543D01*
X209891435Y-47326230D01*
X209828666Y-47109975D01*
X209807406Y-46873138D01*
X210096188Y-46873138D01*
X210109482Y-47027237D01*
X210149389Y-47176892D01*
X210217088Y-47324132D01*
X210307840Y-47458088D01*
X210415684Y-47569063D01*
X210541870Y-47659173D01*
X210681741Y-47725972D01*
X210826825Y-47765649D01*
X210979309Y-47778974D01*
X211133420Y-47765818D01*
X211281665Y-47726494D01*
X211426090Y-47660088D01*
X211557088Y-47570586D01*
X211664619Y-47463818D01*
X211750872Y-47338421D01*
X211813456Y-47199207D01*
X211851559Y-47047748D01*
X211864628Y-46881381D01*
X211848001Y-46691955D01*
X211799836Y-46523349D01*
X211720884Y-46371598D01*
X211609455Y-46233832D01*
X211473810Y-46119418D01*
X211325917Y-46038998D01*
X211163088Y-45990272D01*
X210981507Y-45973531D01*
X210824835Y-45986795D01*
X210678017Y-46026012D01*
X210538756Y-46091500D01*
X210413270Y-46180179D01*
X210306105Y-46289747D01*
X210215989Y-46422327D01*
X210149067Y-46568117D01*
X210109442Y-46717701D01*
X210096188Y-46873138D01*
X209807406Y-46873138D01*
X209807126Y-46870024D01*
X209828673Y-46635774D01*
X209891688Y-46423233D01*
X209996159Y-46227815D01*
X210145280Y-46046254D01*
X210325201Y-45894916D01*
X210518404Y-45789216D01*
X210728127Y-45725609D01*
X210958975Y-45703886D01*
X211139076Y-45717369D01*
G37*
G36*
X212771929Y-45762505D02*
G01*
X213056777Y-45762505D01*
X213056777Y-46147737D01*
X213215229Y-45956558D01*
X213364157Y-45836327D01*
X213513370Y-45762016D01*
X213664936Y-45718395D01*
X213821196Y-45703886D01*
X213979380Y-45719855D01*
X214128576Y-45767451D01*
X214262662Y-45842716D01*
X214366346Y-45936528D01*
X214448304Y-46057033D01*
X214526264Y-46238778D01*
X214633101Y-46073636D01*
X214752451Y-45942146D01*
X214884752Y-45840174D01*
X215032989Y-45764017D01*
X215186552Y-45718983D01*
X215348019Y-45703886D01*
X215498835Y-45717333D01*
X215634041Y-45756421D01*
X215756699Y-45820757D01*
X215864072Y-45908100D01*
X215951515Y-46015745D01*
X216020115Y-46146454D01*
X216063743Y-46289304D01*
X216094425Y-46492549D01*
X216106210Y-46773121D01*
X216106210Y-47990000D01*
X215813119Y-47990000D01*
X215813119Y-46767808D01*
X215797120Y-46435871D01*
X215761828Y-46273033D01*
X215692839Y-46151784D01*
X215586706Y-46055963D01*
X215453348Y-45994898D01*
X215290500Y-45973531D01*
X215155064Y-45987267D01*
X215028560Y-46028056D01*
X214908382Y-46096995D01*
X214803615Y-46188128D01*
X214719617Y-46297071D01*
X214655225Y-46426174D01*
X214615764Y-46567957D01*
X214586814Y-46788246D01*
X214575357Y-47113473D01*
X214575357Y-47990000D01*
X214290509Y-47990000D01*
X214290509Y-46843829D01*
X214274703Y-46470978D01*
X214240317Y-46293550D01*
X214171329Y-46162808D01*
X214065012Y-46061092D01*
X213978048Y-46013103D01*
X213879902Y-45983726D01*
X213767890Y-45973531D01*
X213639051Y-45986728D01*
X213515815Y-46026311D01*
X213395847Y-46093881D01*
X213290837Y-46182982D01*
X213205850Y-46290218D01*
X213139759Y-46417930D01*
X213097913Y-46557417D01*
X213068242Y-46759227D01*
X213056777Y-47041482D01*
X213056777Y-47990000D01*
X212771929Y-47990000D01*
X212771929Y-45762505D01*
G37*
G36*
X217944659Y-45717369D02*
G01*
X218109439Y-45756716D01*
X218261531Y-45821306D01*
X218400980Y-45910386D01*
X218530856Y-46026347D01*
X218651892Y-46172283D01*
X218651892Y-45762505D01*
X218934726Y-45762505D01*
X218934726Y-47990000D01*
X218651892Y-47990000D01*
X218651892Y-47606782D01*
X218523819Y-47743689D01*
X218389117Y-47853049D01*
X218247060Y-47937426D01*
X218094094Y-47998796D01*
X217931230Y-48035966D01*
X217756315Y-48048618D01*
X217526562Y-48026840D01*
X217318086Y-47963083D01*
X217126232Y-47857124D01*
X216947749Y-47705334D01*
X216800606Y-47523543D01*
X216697017Y-47326230D01*
X216634249Y-47109975D01*
X216612989Y-46873138D01*
X216901770Y-46873138D01*
X216915065Y-47027237D01*
X216954972Y-47176892D01*
X217022670Y-47324132D01*
X217113423Y-47458088D01*
X217221267Y-47569063D01*
X217347452Y-47659173D01*
X217487324Y-47725972D01*
X217632408Y-47765649D01*
X217784891Y-47778974D01*
X217939003Y-47765818D01*
X218087247Y-47726494D01*
X218231673Y-47660088D01*
X218362671Y-47570586D01*
X218470201Y-47463818D01*
X218556454Y-47338421D01*
X218619038Y-47199207D01*
X218657141Y-47047748D01*
X218670211Y-46881381D01*
X218653584Y-46691955D01*
X218605419Y-46523349D01*
X218526467Y-46371598D01*
X218415038Y-46233832D01*
X218279393Y-46119418D01*
X218131500Y-46038998D01*
X217968671Y-45990272D01*
X217787090Y-45973531D01*
X217630417Y-45986795D01*
X217483600Y-46026012D01*
X217344338Y-46091500D01*
X217218852Y-46180179D01*
X217111688Y-46289747D01*
X217021571Y-46422327D01*
X216954650Y-46568117D01*
X216915024Y-46717701D01*
X216901770Y-46873138D01*
X216612989Y-46873138D01*
X216612709Y-46870024D01*
X216634256Y-46635774D01*
X216697270Y-46423233D01*
X216801741Y-46227815D01*
X216950863Y-46046254D01*
X217130784Y-45894916D01*
X217323987Y-45789216D01*
X217533709Y-45725609D01*
X217764558Y-45703886D01*
X217944659Y-45717369D01*
G37*
G36*
X220780804Y-45715665D02*
G01*
X220935590Y-45750437D01*
X221082719Y-45808117D01*
X221219228Y-45888137D01*
X221357930Y-46000308D01*
X221499825Y-46149752D01*
X221499825Y-45762505D01*
X221788703Y-45762505D01*
X221788703Y-47541570D01*
X221777211Y-47858303D01*
X221747754Y-48080050D01*
X221706821Y-48229052D01*
X221639329Y-48375307D01*
X221552245Y-48501694D01*
X221444838Y-48610485D01*
X221315177Y-48702944D01*
X221122947Y-48793208D01*
X220901588Y-48849507D01*
X220645097Y-48869274D01*
X220367410Y-48847985D01*
X220129623Y-48787575D01*
X219982098Y-48724539D01*
X219859196Y-48651283D01*
X219757763Y-48568306D01*
X219670607Y-48470266D01*
X219582420Y-48338404D01*
X219493431Y-48165854D01*
X219805024Y-48165854D01*
X219900184Y-48303082D01*
X220009161Y-48411084D01*
X220132920Y-48493201D01*
X220270748Y-48550245D01*
X220435023Y-48586637D01*
X220630992Y-48599630D01*
X220823768Y-48586373D01*
X220987077Y-48549033D01*
X221125767Y-48490087D01*
X221251623Y-48407637D01*
X221346077Y-48316102D01*
X221413729Y-48214947D01*
X221456900Y-48100063D01*
X221487765Y-47928164D01*
X221499825Y-47680605D01*
X221499825Y-47565750D01*
X221383419Y-47692260D01*
X221252005Y-47796719D01*
X221104152Y-47880457D01*
X220945414Y-47941271D01*
X220780768Y-47977723D01*
X220608461Y-47990000D01*
X220407382Y-47973019D01*
X220215576Y-47922452D01*
X220030338Y-47837409D01*
X219862240Y-47722741D01*
X219723820Y-47586393D01*
X219612316Y-47426714D01*
X219530664Y-47249704D01*
X219481535Y-47061533D01*
X219465791Y-46870573D01*
X219753733Y-46870573D01*
X219769817Y-47050672D01*
X219816282Y-47209724D01*
X219892308Y-47351760D01*
X219999563Y-47479654D01*
X220129498Y-47583573D01*
X220276644Y-47658160D01*
X220444325Y-47704263D01*
X220637037Y-47720355D01*
X220832133Y-47704237D01*
X221000176Y-47658273D01*
X221146011Y-47584287D01*
X221273229Y-47481669D01*
X221377112Y-47355228D01*
X221451732Y-47210996D01*
X221497944Y-47045520D01*
X221514113Y-46854087D01*
X221501323Y-46688352D01*
X221464185Y-46538761D01*
X221403471Y-46402543D01*
X221319607Y-46279612D01*
X221215723Y-46175499D01*
X221089863Y-46088752D01*
X220950944Y-46024635D01*
X220806139Y-45986404D01*
X220653340Y-45973531D01*
X220493914Y-45986807D01*
X220343712Y-46026128D01*
X220200514Y-46091866D01*
X220070885Y-46181062D01*
X219962156Y-46289545D01*
X219872618Y-46419030D01*
X219806530Y-46562127D01*
X219767050Y-46711903D01*
X219753733Y-46870573D01*
X219465791Y-46870573D01*
X219464855Y-46859216D01*
X219482035Y-46657037D01*
X219533033Y-46465767D01*
X219618545Y-46282559D01*
X219734099Y-46116770D01*
X219875044Y-45976430D01*
X220043710Y-45859591D01*
X220229752Y-45772478D01*
X220419797Y-45721051D01*
X220616521Y-45703886D01*
X220780804Y-45715665D01*
G37*
G36*
X223662663Y-45719361D02*
G01*
X223846174Y-45764385D01*
X224014178Y-45838121D01*
X224169207Y-45941435D01*
X224312953Y-46076845D01*
X224448082Y-46255879D01*
X224543204Y-46447688D01*
X224600691Y-46655229D01*
X224620333Y-46882480D01*
X224599840Y-47109813D01*
X224539569Y-47319244D01*
X224439188Y-47514762D01*
X224295551Y-47699289D01*
X224158260Y-47825014D01*
X224008307Y-47921663D01*
X223843878Y-47991153D01*
X223662348Y-48033864D01*
X223460423Y-48048618D01*
X223257601Y-48033841D01*
X223075450Y-47991083D01*
X222910647Y-47921559D01*
X222760535Y-47824923D01*
X222623281Y-47699289D01*
X222479644Y-47514762D01*
X222379263Y-47319244D01*
X222318992Y-47109813D01*
X222299209Y-46890357D01*
X222591407Y-46890357D01*
X222604477Y-47048775D01*
X222643235Y-47198578D01*
X222708094Y-47341901D01*
X222796072Y-47471967D01*
X222900856Y-47578952D01*
X223023717Y-47665034D01*
X223160156Y-47728155D01*
X223304963Y-47766100D01*
X223460423Y-47778974D01*
X223615760Y-47766100D01*
X223760444Y-47728155D01*
X223896763Y-47665034D01*
X224019726Y-47578934D01*
X224124506Y-47471947D01*
X224212386Y-47341901D01*
X224277351Y-47198568D01*
X224316168Y-47048767D01*
X224329256Y-46890357D01*
X224312774Y-46707328D01*
X224264672Y-46541826D01*
X224185164Y-46390285D01*
X224072069Y-46250136D01*
X223934871Y-46132475D01*
X223788950Y-46050778D01*
X223631937Y-46001882D01*
X223460423Y-45985254D01*
X223287744Y-46001935D01*
X223130167Y-46050913D01*
X222984220Y-46132622D01*
X222847496Y-46250136D01*
X222734927Y-46390219D01*
X222655750Y-46541741D01*
X222607831Y-46707269D01*
X222591407Y-46890357D01*
X222299209Y-46890357D01*
X222298499Y-46882480D01*
X222318111Y-46656295D01*
X222375548Y-46449454D01*
X222470661Y-46258013D01*
X222605879Y-46079043D01*
X222749701Y-45942840D01*
X222904949Y-45838927D01*
X223073329Y-45764758D01*
X223257399Y-45719460D01*
X223460423Y-45703886D01*
X223662663Y-45719361D01*
G37*
G36*
X225404169Y-44930125D02*
G01*
X225693230Y-44930125D01*
X225693230Y-45762505D01*
X226148072Y-45762505D01*
X226148072Y-46008702D01*
X225693230Y-46008702D01*
X225693230Y-47990000D01*
X225404169Y-47990000D01*
X225404169Y-46008702D01*
X225012709Y-46008702D01*
X225012709Y-45762505D01*
X225404169Y-45762505D01*
X225404169Y-44930125D01*
G37*
G36*
X228739733Y-46218995D02*
G01*
X228512220Y-46360411D01*
X228384585Y-46220236D01*
X228242688Y-46113412D01*
X228084658Y-46036920D01*
X227907391Y-45989862D01*
X227706769Y-45973531D01*
X227506839Y-45990701D01*
X227329980Y-46040280D01*
X227171923Y-46121212D01*
X227029544Y-46234931D01*
X226910559Y-46374235D01*
X226827377Y-46524620D01*
X226777238Y-46688697D01*
X226760083Y-46870207D01*
X226773841Y-47028864D01*
X226814885Y-47180597D01*
X226884098Y-47327613D01*
X226977375Y-47460380D01*
X227090173Y-47570775D01*
X227224267Y-47660638D01*
X227372347Y-47725755D01*
X227533012Y-47765390D01*
X227708967Y-47778974D01*
X227901075Y-47763056D01*
X228074428Y-47716757D01*
X228232497Y-47640739D01*
X228377899Y-47533625D01*
X228512220Y-47392093D01*
X228739733Y-47541753D01*
X228621438Y-47689946D01*
X228479180Y-47814156D01*
X228310354Y-47915811D01*
X228126438Y-47988373D01*
X227923050Y-48033132D01*
X227696693Y-48048618D01*
X227437316Y-48026497D01*
X227208128Y-47962667D01*
X227003586Y-47858575D01*
X226819617Y-47712479D01*
X226665732Y-47533240D01*
X226558189Y-47339699D01*
X226493380Y-47128487D01*
X226471205Y-46894754D01*
X226489427Y-46683248D01*
X226543470Y-46483752D01*
X226634054Y-46293183D01*
X226756454Y-46121396D01*
X226904927Y-45977651D01*
X227081934Y-45859774D01*
X227277053Y-45773947D01*
X227488314Y-45721757D01*
X227719225Y-45703886D01*
X227937219Y-45720735D01*
X228146406Y-45770931D01*
X228341008Y-45850057D01*
X228495917Y-45945321D01*
X228627380Y-46066059D01*
X228739733Y-46218995D01*
G37*
G36*
X229292576Y-44894954D02*
G01*
X229579623Y-44894954D01*
X229579623Y-46160926D01*
X229703816Y-46016486D01*
X229831366Y-45903271D01*
X229962840Y-45817643D01*
X230105792Y-45754533D01*
X230256029Y-45716683D01*
X230415666Y-45703886D01*
X230578522Y-45718461D01*
X230725342Y-45760932D01*
X230859333Y-45831015D01*
X230977348Y-45925537D01*
X231072039Y-46038507D01*
X231145097Y-46172100D01*
X231191454Y-46319124D01*
X231224553Y-46535648D01*
X231237421Y-46842913D01*
X231237421Y-47990000D01*
X230950558Y-47990000D01*
X230950558Y-46929741D01*
X230940736Y-46577216D01*
X230919783Y-46416831D01*
X230872112Y-46276478D01*
X230807334Y-46167731D01*
X230726160Y-46084905D01*
X230627052Y-46024861D01*
X230506277Y-45987050D01*
X230358330Y-45973531D01*
X230190922Y-45992583D01*
X230036844Y-46049101D01*
X229892131Y-46145172D01*
X229769660Y-46269677D01*
X229679931Y-46410409D01*
X229620655Y-46570155D01*
X229592463Y-46768087D01*
X229579623Y-47174839D01*
X229579623Y-47990000D01*
X229292576Y-47990000D01*
X229292576Y-44894954D01*
G37*
G36*
X231951648Y-44836336D02*
G01*
X232042862Y-44853615D01*
X232119626Y-44905396D01*
X232172004Y-44981634D01*
X232189419Y-45071908D01*
X232172107Y-45160292D01*
X232119626Y-45236222D01*
X232042862Y-45288003D01*
X231951648Y-45305282D01*
X231862294Y-45288109D01*
X231785685Y-45236222D01*
X231733348Y-45160307D01*
X231716076Y-45071908D01*
X231733451Y-44981620D01*
X231785685Y-44905396D01*
X231862294Y-44853509D01*
X231951648Y-44836336D01*
G37*
G36*
X231808217Y-45762505D02*
G01*
X232097278Y-45762505D01*
X232097278Y-47990000D01*
X231808217Y-47990000D01*
X231808217Y-45762505D01*
G37*
X217808646Y-67402419D02*
X218094360Y-67497657D01*
X218094360Y-67497657D02*
X218189598Y-67592895D01*
X218189598Y-67592895D02*
X218284836Y-67783371D01*
X218284836Y-67783371D02*
X218284836Y-68069085D01*
X218284836Y-68069085D02*
X218189598Y-68259561D01*
X218189598Y-68259561D02*
X218094360Y-68354800D01*
X218094360Y-68354800D02*
X217903884Y-68450038D01*
X217903884Y-68450038D02*
X217141979Y-68450038D01*
X217141979Y-68450038D02*
X217141979Y-66450038D01*
X217141979Y-66450038D02*
X217808646Y-66450038D01*
X217808646Y-66450038D02*
X217999122Y-66545276D01*
X217999122Y-66545276D02*
X218094360Y-66640514D01*
X218094360Y-66640514D02*
X218189598Y-66830990D01*
X218189598Y-66830990D02*
X218189598Y-67021466D01*
X218189598Y-67021466D02*
X218094360Y-67211942D01*
X218094360Y-67211942D02*
X217999122Y-67307180D01*
X217999122Y-67307180D02*
X217808646Y-67402419D01*
X217808646Y-67402419D02*
X217141979Y-67402419D01*
X219046741Y-67878609D02*
X219999122Y-67878609D01*
X218856265Y-68450038D02*
X219522931Y-66450038D01*
X219522931Y-66450038D02*
X220189598Y-68450038D01*
X221808646Y-68450038D02*
X220856265Y-68450038D01*
X220856265Y-68450038D02*
X220856265Y-66450038D01*
X223427694Y-68450038D02*
X222475313Y-68450038D01*
X222475313Y-68450038D02*
X222475313Y-66450038D01*
X223999123Y-68354800D02*
X224284837Y-68450038D01*
X224284837Y-68450038D02*
X224761028Y-68450038D01*
X224761028Y-68450038D02*
X224951504Y-68354800D01*
X224951504Y-68354800D02*
X225046742Y-68259561D01*
X225046742Y-68259561D02*
X225141980Y-68069085D01*
X225141980Y-68069085D02*
X225141980Y-67878609D01*
X225141980Y-67878609D02*
X225046742Y-67688133D01*
X225046742Y-67688133D02*
X224951504Y-67592895D01*
X224951504Y-67592895D02*
X224761028Y-67497657D01*
X224761028Y-67497657D02*
X224380075Y-67402419D01*
X224380075Y-67402419D02*
X224189599Y-67307180D01*
X224189599Y-67307180D02*
X224094361Y-67211942D01*
X224094361Y-67211942D02*
X223999123Y-67021466D01*
X223999123Y-67021466D02*
X223999123Y-66830990D01*
X223999123Y-66830990D02*
X224094361Y-66640514D01*
X224094361Y-66640514D02*
X224189599Y-66545276D01*
X224189599Y-66545276D02*
X224380075Y-66450038D01*
X224380075Y-66450038D02*
X224856266Y-66450038D01*
X224856266Y-66450038D02*
X225141980Y-66545276D01*
D11*
X225205826Y-49172914D02*
X225420112Y-49244342D01*
X225420112Y-49244342D02*
X225491541Y-49315771D01*
X225491541Y-49315771D02*
X225562969Y-49458628D01*
X225562969Y-49458628D02*
X225562969Y-49672914D01*
X225562969Y-49672914D02*
X225491541Y-49815771D01*
X225491541Y-49815771D02*
X225420112Y-49887200D01*
X225420112Y-49887200D02*
X225277255Y-49958628D01*
X225277255Y-49958628D02*
X224705826Y-49958628D01*
X224705826Y-49958628D02*
X224705826Y-48458628D01*
X224705826Y-48458628D02*
X225205826Y-48458628D01*
X225205826Y-48458628D02*
X225348684Y-48530057D01*
X225348684Y-48530057D02*
X225420112Y-48601485D01*
X225420112Y-48601485D02*
X225491541Y-48744342D01*
X225491541Y-48744342D02*
X225491541Y-48887200D01*
X225491541Y-48887200D02*
X225420112Y-49030057D01*
X225420112Y-49030057D02*
X225348684Y-49101485D01*
X225348684Y-49101485D02*
X225205826Y-49172914D01*
X225205826Y-49172914D02*
X224705826Y-49172914D01*
X226062969Y-48958628D02*
X226420112Y-49958628D01*
X226777255Y-48958628D02*
X226420112Y-49958628D01*
X226420112Y-49958628D02*
X226277255Y-50315771D01*
X226277255Y-50315771D02*
X226205826Y-50387200D01*
X226205826Y-50387200D02*
X226062969Y-50458628D01*
X228277255Y-48458628D02*
X229134398Y-48458628D01*
X228705826Y-49958628D02*
X228705826Y-48458628D01*
X229634397Y-49958628D02*
X229634397Y-48958628D01*
X229634397Y-48458628D02*
X229562969Y-48530057D01*
X229562969Y-48530057D02*
X229634397Y-48601485D01*
X229634397Y-48601485D02*
X229705826Y-48530057D01*
X229705826Y-48530057D02*
X229634397Y-48458628D01*
X229634397Y-48458628D02*
X229634397Y-48601485D01*
X230348683Y-49958628D02*
X230348683Y-48958628D01*
X230348683Y-49244342D02*
X230420112Y-49101485D01*
X230420112Y-49101485D02*
X230491541Y-49030057D01*
X230491541Y-49030057D02*
X230634398Y-48958628D01*
X230634398Y-48958628D02*
X230777255Y-48958628D01*
X231062969Y-48958628D02*
X231634397Y-48958628D01*
X231277254Y-48458628D02*
X231277254Y-49744342D01*
X231277254Y-49744342D02*
X231348683Y-49887200D01*
X231348683Y-49887200D02*
X231491540Y-49958628D01*
X231491540Y-49958628D02*
X231634397Y-49958628D01*
X232134397Y-49958628D02*
X232134397Y-48458628D01*
X232777255Y-49958628D02*
X232777255Y-49172914D01*
X232777255Y-49172914D02*
X232705826Y-49030057D01*
X232705826Y-49030057D02*
X232562969Y-48958628D01*
X232562969Y-48958628D02*
X232348683Y-48958628D01*
X232348683Y-48958628D02*
X232205826Y-49030057D01*
X232205826Y-49030057D02*
X232134397Y-49101485D01*
X234134398Y-49958628D02*
X234134398Y-49172914D01*
X234134398Y-49172914D02*
X234062969Y-49030057D01*
X234062969Y-49030057D02*
X233920112Y-48958628D01*
X233920112Y-48958628D02*
X233634398Y-48958628D01*
X233634398Y-48958628D02*
X233491540Y-49030057D01*
X234134398Y-49887200D02*
X233991540Y-49958628D01*
X233991540Y-49958628D02*
X233634398Y-49958628D01*
X233634398Y-49958628D02*
X233491540Y-49887200D01*
X233491540Y-49887200D02*
X233420112Y-49744342D01*
X233420112Y-49744342D02*
X233420112Y-49601485D01*
X233420112Y-49601485D02*
X233491540Y-49458628D01*
X233491540Y-49458628D02*
X233634398Y-49387200D01*
X233634398Y-49387200D02*
X233991540Y-49387200D01*
X233991540Y-49387200D02*
X234134398Y-49315771D01*
X234848683Y-49958628D02*
X234848683Y-48458628D01*
X234991541Y-49387200D02*
X235420112Y-49958628D01*
X235420112Y-48958628D02*
X234848683Y-49530057D01*
D12*
X243986465Y-70242285D02*
X244272179Y-70528000D01*
X244272179Y-70528000D02*
X243986465Y-70813714D01*
X243986465Y-70813714D02*
X243700751Y-70528000D01*
X243700751Y-70528000D02*
X243986465Y-70242285D01*
X243986465Y-70242285D02*
X243986465Y-70813714D01*
X243986465Y-67099428D02*
X244272179Y-67385142D01*
X244272179Y-67385142D02*
X243986465Y-67670857D01*
X243986465Y-67670857D02*
X243700751Y-67385142D01*
X243700751Y-67385142D02*
X243986465Y-67099428D01*
X243986465Y-67099428D02*
X243986465Y-67670857D01*
X246272179Y-64813714D02*
X249986465Y-64813714D01*
X249986465Y-64813714D02*
X247986465Y-67099428D01*
X247986465Y-67099428D02*
X248843608Y-67099428D01*
X248843608Y-67099428D02*
X249415037Y-67385142D01*
X249415037Y-67385142D02*
X249700751Y-67670857D01*
X249700751Y-67670857D02*
X249986465Y-68242285D01*
X249986465Y-68242285D02*
X249986465Y-69670857D01*
X249986465Y-69670857D02*
X249700751Y-70242285D01*
X249700751Y-70242285D02*
X249415037Y-70528000D01*
X249415037Y-70528000D02*
X248843608Y-70813714D01*
X248843608Y-70813714D02*
X247129322Y-70813714D01*
X247129322Y-70813714D02*
X246557894Y-70528000D01*
X246557894Y-70528000D02*
X246272179Y-70242285D01*
D13*
X233831139Y-45972834D02*
X234414473Y-47722834D01*
X234414473Y-47722834D02*
X234997806Y-45972834D01*
X236497806Y-47722834D02*
X235497806Y-47722834D01*
X235997806Y-47722834D02*
X235997806Y-45972834D01*
X235997806Y-45972834D02*
X235831139Y-46222834D01*
X235831139Y-46222834D02*
X235664473Y-46389501D01*
X235664473Y-46389501D02*
X235497806Y-46472834D01*
D10*
G36*
X188133879Y-80829226D02*
G01*
X188133879Y-80780927D01*
X188291599Y-80718523D01*
X188521127Y-80569779D01*
X188789122Y-80459931D01*
X188918204Y-80521907D01*
X189032754Y-80445398D01*
X189142602Y-80392825D01*
X189244802Y-80468383D01*
X189377259Y-80517206D01*
X189730739Y-80579182D01*
X189749973Y-80579182D01*
X190056010Y-80550545D01*
X190328707Y-80786056D01*
X190519766Y-80583457D01*
X190663381Y-80649280D01*
X190720655Y-80663385D01*
X190835633Y-80658683D01*
X191141669Y-80710829D01*
X191342559Y-80691595D01*
X191543449Y-80729636D01*
X191743911Y-80724934D01*
X192059778Y-80734338D01*
X192198264Y-80696724D01*
X192470961Y-80706128D01*
X192590640Y-80701426D01*
X192729125Y-80701426D01*
X193192882Y-80635175D01*
X193594661Y-80663385D01*
X193809656Y-80630473D01*
X193943867Y-80578755D01*
X194718361Y-80421462D01*
X194723063Y-80478737D01*
X194694426Y-80564650D01*
X194617916Y-80720233D01*
X194503367Y-80828371D01*
X194197330Y-81125004D01*
X194119548Y-81039400D01*
X194072950Y-81019857D01*
X193967803Y-81019857D01*
X193814785Y-80847605D01*
X193809656Y-80842904D01*
X193779900Y-80873244D01*
X193714340Y-81034390D01*
X193714340Y-81110899D01*
X193566024Y-81034390D01*
X193436941Y-80857436D01*
X193427110Y-80847605D01*
X193130905Y-81067729D01*
X193068501Y-81081834D01*
X192776997Y-81063027D01*
X192576107Y-81048495D01*
X192502074Y-80971398D01*
X192432493Y-80952752D01*
X192408557Y-80952752D01*
X192289305Y-80948050D01*
X192069181Y-80995922D01*
X191815718Y-81024559D01*
X191528916Y-80943348D01*
X191399834Y-80957881D01*
X191260921Y-80957881D01*
X191136967Y-81005325D01*
X190682615Y-80904880D01*
X190562936Y-80761693D01*
X190414619Y-80967284D01*
X190151753Y-80728354D01*
X190075244Y-80871541D01*
X189984268Y-80976574D01*
X189860249Y-81010454D01*
X189850418Y-81010454D01*
X189803545Y-80996898D01*
X189730739Y-80928816D01*
X189588550Y-80788327D01*
X189511043Y-80756991D01*
X189439130Y-80802813D01*
X189372130Y-81010454D01*
X189386662Y-81029261D01*
X188942140Y-81504557D01*
X189362726Y-81629793D01*
X189358025Y-81773835D01*
X189358025Y-81850772D01*
X189276814Y-81994814D01*
X189372130Y-82090984D01*
X189391364Y-82556878D01*
X189582850Y-82547474D01*
X190070542Y-82616290D01*
X190658679Y-82641080D01*
X190778358Y-82690234D01*
X190936078Y-82631250D01*
X191184412Y-82670573D01*
X191328026Y-82621419D01*
X191356664Y-82616290D01*
X191461810Y-82660742D01*
X191485746Y-82606459D01*
X191538319Y-82596628D01*
X191858888Y-82635951D01*
X192079012Y-82641080D01*
X192184159Y-82547474D01*
X192226901Y-82729557D01*
X192274773Y-82763751D01*
X192600043Y-82572265D01*
X192685956Y-82532942D01*
X192872740Y-82586797D01*
X192906079Y-82591927D01*
X193073630Y-82557305D01*
X193258570Y-82511092D01*
X193661767Y-82451731D01*
X194082353Y-82341883D01*
X194082353Y-82389327D01*
X194058417Y-82523539D01*
X193929335Y-82621419D01*
X193953271Y-82783413D01*
X193695106Y-82985158D01*
X193508749Y-82980456D01*
X193278324Y-82959519D01*
X193154841Y-82927455D01*
X192934717Y-82841115D01*
X192738529Y-82941988D01*
X192365814Y-82951391D01*
X192260668Y-82956520D01*
X192031140Y-82912923D01*
X191944801Y-82918052D01*
X191677233Y-82956520D01*
X191481045Y-82932157D01*
X191428471Y-82927455D01*
X191246816Y-82937286D01*
X191160903Y-82941988D01*
X190978820Y-82903519D01*
X190692018Y-82961222D01*
X190529596Y-82946689D01*
X190366748Y-82961222D01*
X190237665Y-82961222D01*
X190046606Y-82975754D01*
X189778611Y-82894116D01*
X189759804Y-82918052D01*
X189745272Y-83023626D01*
X189491809Y-82994988D01*
X189467873Y-83128772D01*
X189443937Y-83243322D01*
X189458469Y-83410873D01*
X189477704Y-83884460D01*
X189362726Y-83931904D01*
X189310153Y-84037478D01*
X189342198Y-84133817D01*
X189453768Y-84223835D01*
X189248372Y-84308063D01*
X189147732Y-84386257D01*
X189107324Y-84474705D01*
X189090029Y-84644421D01*
X189131480Y-84819864D01*
X189248176Y-84921820D01*
X189433322Y-85021443D01*
X189463171Y-85055604D01*
X189458469Y-85065435D01*
X189381960Y-85266325D01*
X189396065Y-85376173D01*
X189477704Y-85438149D01*
X189491809Y-85486021D01*
X189458469Y-85519788D01*
X189358025Y-85548425D01*
X189448639Y-85648870D01*
X189448639Y-85720677D01*
X189458469Y-86447300D01*
X189425130Y-86538341D01*
X189286217Y-86672125D01*
X189266983Y-86719997D01*
X189304280Y-86789990D01*
X189453768Y-86834547D01*
X189463171Y-87250859D01*
X189472575Y-88025353D01*
X189501212Y-88207009D01*
X189469993Y-88308661D01*
X189358025Y-88422431D01*
X189415782Y-88619155D01*
X189477775Y-88698869D01*
X189544382Y-88713935D01*
X189549084Y-88895590D01*
X189568318Y-89249498D01*
X189543089Y-89362974D01*
X189482405Y-89393113D01*
X189372130Y-89369177D01*
X189357447Y-89479924D01*
X189334089Y-89522195D01*
X189233644Y-89560236D01*
X189095158Y-89622640D01*
X188894269Y-89684617D01*
X188726718Y-89741892D01*
X188602337Y-89670084D01*
X188621571Y-89608108D01*
X188554466Y-89469622D01*
X188674145Y-89230264D01*
X188755355Y-89091778D01*
X188760057Y-88967398D01*
X188807295Y-88645028D01*
X188822461Y-88345922D01*
X188807929Y-88216412D01*
X188855800Y-88192476D01*
X188966076Y-88221541D01*
X188927608Y-88135201D01*
X188855800Y-88115967D01*
X188774590Y-88082628D01*
X188755355Y-87862931D01*
X188760057Y-87547064D01*
X188851099Y-87446619D01*
X188841695Y-87379941D01*
X188903672Y-87312835D01*
X188918204Y-87327368D01*
X188956245Y-87298303D01*
X188956245Y-87174350D01*
X188922906Y-87188455D01*
X188898970Y-87088010D01*
X188855800Y-87092712D01*
X188790971Y-87072032D01*
X188769888Y-87011501D01*
X188769888Y-87002097D01*
X188774590Y-86858483D01*
X188783993Y-86504575D01*
X188831864Y-86390025D01*
X188803227Y-86298983D01*
X188867450Y-86203633D01*
X188884438Y-86136562D01*
X188867562Y-86087654D01*
X188803227Y-86026714D01*
X188798525Y-85839929D01*
X188803227Y-85701443D01*
X188813058Y-85591168D01*
X188774590Y-85428746D01*
X188755355Y-85290260D01*
X188779299Y-85200596D01*
X188851099Y-85141944D01*
X188851099Y-85046201D01*
X188870333Y-85046201D01*
X188946842Y-84974393D01*
X188898970Y-84811972D01*
X188817759Y-84788036D01*
X188760057Y-84635018D01*
X188750654Y-84243069D01*
X188717315Y-84056285D01*
X188702782Y-83903266D01*
X188688677Y-83712207D01*
X188702782Y-83458744D01*
X188792857Y-83451342D01*
X188817759Y-83430107D01*
X188846397Y-83310428D01*
X188693379Y-82999690D01*
X188731420Y-82841115D01*
X188688677Y-82620137D01*
X188659612Y-82360690D01*
X188607039Y-82125606D01*
X188588232Y-81842223D01*
X188549764Y-81683648D01*
X188573700Y-81530203D01*
X188573700Y-81520372D01*
X188483086Y-81294692D01*
X188449319Y-81107480D01*
X188454021Y-80958736D01*
X188282196Y-80987373D01*
X188133879Y-80829226D01*
G37*
G36*
X195441137Y-84915409D02*
G01*
X195467821Y-84848742D01*
X195584752Y-84733753D01*
X195896671Y-84521146D01*
X196129719Y-84413184D01*
X196273333Y-84561501D01*
X196196824Y-84896175D01*
X196168187Y-85111169D01*
X196168187Y-85288123D01*
X196086549Y-85403101D01*
X196111219Y-85516736D01*
X196191695Y-85632628D01*
X196163058Y-85694604D01*
X196172889Y-85929261D01*
X196168187Y-85981834D01*
X196163058Y-86091682D01*
X196139122Y-87005089D01*
X196201526Y-87335062D01*
X196210929Y-87535951D01*
X196239567Y-87703074D01*
X196218993Y-87796775D01*
X196153654Y-87884730D01*
X195971999Y-88009111D01*
X195699302Y-88210001D01*
X195613389Y-88229235D01*
X195498412Y-88171532D01*
X195522348Y-88013812D01*
X195574921Y-87803519D01*
X195579623Y-87569290D01*
X195613389Y-87100405D01*
X195608688Y-87014493D01*
X195630568Y-86956713D01*
X195685197Y-86937984D01*
X195733068Y-86942685D01*
X195757004Y-86837539D01*
X195728367Y-86689222D01*
X195699302Y-86555438D01*
X195618091Y-86493462D01*
X195632623Y-86335315D01*
X195627922Y-86263935D01*
X195627922Y-86196829D01*
X195675793Y-86058343D01*
X195627922Y-85938664D01*
X195627922Y-85900196D01*
X195627922Y-85866857D01*
X195618091Y-85757009D01*
X195887435Y-85689955D01*
X195928829Y-85656564D01*
X195919426Y-85642031D01*
X195840444Y-85595959D01*
X195742472Y-85580055D01*
X195556114Y-85589458D01*
X195570219Y-85493715D01*
X195532178Y-85020555D01*
X195510125Y-84969552D01*
X195441137Y-84915409D01*
G37*
G36*
X195527049Y-82995416D02*
G01*
X195527049Y-82990714D01*
X195572879Y-82832670D01*
X195771109Y-82627403D01*
X195895490Y-82503022D01*
X195991233Y-82426513D01*
X196210929Y-82135009D01*
X196330608Y-82082436D01*
X196440457Y-82154243D01*
X196509731Y-82229983D01*
X196531498Y-82316665D01*
X196511667Y-82385582D01*
X196445158Y-82450449D01*
X196024572Y-82794526D01*
X195890788Y-82880866D01*
X195723237Y-82995416D01*
X195570219Y-83067223D01*
X195539708Y-83052128D01*
X195527049Y-82995416D01*
G37*
G36*
X197472260Y-80537295D02*
G01*
X197534973Y-80463483D01*
X197668449Y-80379147D01*
X197983888Y-80216726D01*
X198114011Y-80169706D01*
X198237351Y-80154749D01*
X198352329Y-80197492D01*
X198094164Y-80326574D01*
X197912081Y-80518061D01*
X198280521Y-80867267D01*
X198304457Y-80962582D01*
X198251884Y-81120302D01*
X198208714Y-81211344D01*
X198127503Y-81249812D01*
X198089035Y-81311789D01*
X198065526Y-81392999D01*
X198084333Y-81507977D01*
X198204012Y-81464807D01*
X198299755Y-81431468D01*
X198251884Y-82267938D01*
X198261287Y-82392319D01*
X198265989Y-82502595D01*
X198241784Y-82600003D01*
X198156140Y-82717589D01*
X198180076Y-82846672D01*
X198265989Y-82947117D01*
X198295054Y-83062094D01*
X198242480Y-83301025D01*
X198271118Y-83487382D01*
X198295054Y-83760079D01*
X198242480Y-83922501D01*
X198275819Y-84123390D01*
X198265989Y-84219133D01*
X198295054Y-84372152D01*
X198285223Y-84429427D01*
X198241988Y-84687810D01*
X198227948Y-84934215D01*
X198275819Y-85145791D01*
X198537851Y-84966835D01*
X198892594Y-84650405D01*
X199093483Y-84688873D01*
X199337116Y-84587574D01*
X199605111Y-84544404D01*
X199656943Y-84559363D01*
X199729492Y-84616639D01*
X199758129Y-84722213D01*
X199872679Y-84722213D01*
X199949188Y-84606808D01*
X200006891Y-84568340D01*
X200293693Y-84587574D01*
X200757449Y-84640574D01*
X200915169Y-84817956D01*
X200983893Y-84879383D01*
X201120760Y-84952595D01*
X201049380Y-85096637D01*
X201118575Y-85128066D01*
X201216503Y-85139807D01*
X201293347Y-85273597D01*
X201316948Y-85399254D01*
X201302416Y-85730508D01*
X201275273Y-85878148D01*
X201235737Y-85951487D01*
X201178463Y-86009189D01*
X201250270Y-86196401D01*
X201154527Y-86311806D01*
X201139994Y-86354976D01*
X201269077Y-86489188D01*
X201245141Y-86575955D01*
X201250270Y-86695634D01*
X201264375Y-86984146D01*
X201269077Y-87036719D01*
X201183164Y-87209826D01*
X201245141Y-87541080D01*
X201235737Y-87953973D01*
X201240439Y-88011675D01*
X201121833Y-88069237D01*
X200972871Y-88102717D01*
X200805321Y-88198887D01*
X200623665Y-88275397D01*
X200456114Y-88126653D01*
X200556559Y-87861649D01*
X200618113Y-87676056D01*
X200638197Y-87491072D01*
X200571092Y-87264536D01*
X200585197Y-87201705D01*
X200613834Y-87023896D01*
X200704876Y-86620834D01*
X200623665Y-86572963D01*
X200676238Y-86008762D01*
X200680940Y-85951059D01*
X200680940Y-85917720D01*
X200647601Y-85688193D01*
X200666407Y-85645023D01*
X200685642Y-85577917D01*
X200685642Y-85573216D01*
X200618963Y-85415496D01*
X200503986Y-85281712D01*
X200341564Y-85228711D01*
X200116739Y-85123565D01*
X199915849Y-85118863D01*
X199600409Y-85080822D01*
X199504666Y-85085524D01*
X199270437Y-85099629D01*
X198882763Y-85153057D01*
X198820786Y-85168017D01*
X198543387Y-85315051D01*
X198375837Y-85374036D01*
X198070760Y-85669370D01*
X198027058Y-85731790D01*
X198050713Y-85793362D01*
X198138906Y-85855527D01*
X198342498Y-85918148D01*
X198318562Y-86047658D01*
X198270690Y-86574245D01*
X198180094Y-86585434D01*
X198132205Y-86612286D01*
X198132205Y-86641351D01*
X198238345Y-86783767D01*
X198285223Y-86885410D01*
X198333094Y-87297021D01*
X198357030Y-87450039D01*
X198313860Y-87660759D01*
X198337796Y-87790269D01*
X198337796Y-87871480D01*
X198342498Y-87957820D01*
X198289924Y-88053563D01*
X197988590Y-88158710D01*
X197906939Y-88202603D01*
X197759063Y-88326260D01*
X197649214Y-88230517D01*
X197716320Y-87869770D01*
X197716320Y-87730430D01*
X197782998Y-87595363D01*
X197816765Y-87479959D01*
X197792829Y-87403022D01*
X197735127Y-87282916D01*
X197735127Y-87277787D01*
X197749659Y-87032445D01*
X197749659Y-87138446D01*
X197749659Y-86806337D01*
X197754361Y-86729400D01*
X197759063Y-86671698D01*
X197749659Y-86493462D01*
X197773595Y-86132715D01*
X197759063Y-85853607D01*
X197778297Y-85762138D01*
X197902677Y-85636902D01*
X197931315Y-85559966D01*
X197917210Y-85405665D01*
X197802233Y-85439432D01*
X197760150Y-85204237D01*
X197744958Y-84919683D01*
X197768893Y-84104156D01*
X197931315Y-84085349D01*
X197850104Y-83860524D01*
X197740256Y-83784015D01*
X197759063Y-83578423D01*
X197744958Y-83420704D01*
X197697086Y-82947117D01*
X197719773Y-82843403D01*
X197788128Y-82760759D01*
X198012526Y-82573975D01*
X198012526Y-82569273D01*
X197889160Y-82494525D01*
X197673150Y-82454723D01*
X197701788Y-82277769D01*
X197759063Y-82086283D01*
X197737737Y-82019413D01*
X197658618Y-81938394D01*
X197663747Y-81746907D01*
X197658618Y-81574655D01*
X197649214Y-81359660D01*
X197677852Y-81154069D01*
X197563302Y-80742886D01*
X197568004Y-80632610D01*
X197472260Y-80537295D01*
G37*
D14*
X250249404Y-90905061D02*
X250249404Y-89905061D01*
X250249404Y-89905061D02*
X250487499Y-89905061D01*
X250487499Y-89905061D02*
X250630356Y-89952680D01*
X250630356Y-89952680D02*
X250725594Y-90047918D01*
X250725594Y-90047918D02*
X250773213Y-90143156D01*
X250773213Y-90143156D02*
X250820832Y-90333632D01*
X250820832Y-90333632D02*
X250820832Y-90476489D01*
X250820832Y-90476489D02*
X250773213Y-90666965D01*
X250773213Y-90666965D02*
X250725594Y-90762203D01*
X250725594Y-90762203D02*
X250630356Y-90857442D01*
X250630356Y-90857442D02*
X250487499Y-90905061D01*
X250487499Y-90905061D02*
X250249404Y-90905061D01*
X251154166Y-89905061D02*
X251820832Y-89905061D01*
X251820832Y-89905061D02*
X251392261Y-90905061D01*
D11*
X189225536Y-97120687D02*
X189339993Y-97158839D01*
X189339993Y-97158839D02*
X189530754Y-97158839D01*
X189530754Y-97158839D02*
X189607059Y-97120687D01*
X189607059Y-97120687D02*
X189645211Y-97082534D01*
X189645211Y-97082534D02*
X189683363Y-97006230D01*
X189683363Y-97006230D02*
X189683363Y-96929925D01*
X189683363Y-96929925D02*
X189645211Y-96853621D01*
X189645211Y-96853621D02*
X189607059Y-96815469D01*
X189607059Y-96815469D02*
X189530754Y-96777316D01*
X189530754Y-96777316D02*
X189378145Y-96739164D01*
X189378145Y-96739164D02*
X189301841Y-96701012D01*
X189301841Y-96701012D02*
X189263689Y-96662860D01*
X189263689Y-96662860D02*
X189225536Y-96586555D01*
X189225536Y-96586555D02*
X189225536Y-96510251D01*
X189225536Y-96510251D02*
X189263689Y-96433946D01*
X189263689Y-96433946D02*
X189301841Y-96395794D01*
X189301841Y-96395794D02*
X189378145Y-96357642D01*
X189378145Y-96357642D02*
X189568907Y-96357642D01*
X189568907Y-96357642D02*
X189683363Y-96395794D01*
X189950429Y-96357642D02*
X190141190Y-97158839D01*
X190141190Y-97158839D02*
X190293799Y-96586555D01*
X190293799Y-96586555D02*
X190446408Y-97158839D01*
X190446408Y-97158839D02*
X190637170Y-96357642D01*
X190904235Y-96433946D02*
X190942388Y-96395794D01*
X190942388Y-96395794D02*
X191018692Y-96357642D01*
X191018692Y-96357642D02*
X191209453Y-96357642D01*
X191209453Y-96357642D02*
X191285758Y-96395794D01*
X191285758Y-96395794D02*
X191323910Y-96433946D01*
X191323910Y-96433946D02*
X191362062Y-96510251D01*
X191362062Y-96510251D02*
X191362062Y-96586555D01*
X191362062Y-96586555D02*
X191323910Y-96701012D01*
X191323910Y-96701012D02*
X190866083Y-97158839D01*
X190866083Y-97158839D02*
X191362062Y-97158839D01*
D14*
X198061905Y-55902219D02*
X198061905Y-54902219D01*
X198061905Y-54902219D02*
X198300000Y-54902219D01*
X198300000Y-54902219D02*
X198442857Y-54949838D01*
X198442857Y-54949838D02*
X198538095Y-55045076D01*
X198538095Y-55045076D02*
X198585714Y-55140314D01*
X198585714Y-55140314D02*
X198633333Y-55330790D01*
X198633333Y-55330790D02*
X198633333Y-55473647D01*
X198633333Y-55473647D02*
X198585714Y-55664123D01*
X198585714Y-55664123D02*
X198538095Y-55759361D01*
X198538095Y-55759361D02*
X198442857Y-55854600D01*
X198442857Y-55854600D02*
X198300000Y-55902219D01*
X198300000Y-55902219D02*
X198061905Y-55902219D01*
X199585714Y-55902219D02*
X199014286Y-55902219D01*
X199300000Y-55902219D02*
X199300000Y-54902219D01*
X199300000Y-54902219D02*
X199204762Y-55045076D01*
X199204762Y-55045076D02*
X199109524Y-55140314D01*
X199109524Y-55140314D02*
X199014286Y-55187933D01*
D11*
X248419047Y-77331009D02*
X248561904Y-77378628D01*
X248561904Y-77378628D02*
X248609523Y-77426247D01*
X248609523Y-77426247D02*
X248657142Y-77521485D01*
X248657142Y-77521485D02*
X248657142Y-77664342D01*
X248657142Y-77664342D02*
X248609523Y-77759580D01*
X248609523Y-77759580D02*
X248561904Y-77807200D01*
X248561904Y-77807200D02*
X248466666Y-77854819D01*
X248466666Y-77854819D02*
X248085714Y-77854819D01*
X248085714Y-77854819D02*
X248085714Y-76854819D01*
X248085714Y-76854819D02*
X248419047Y-76854819D01*
X248419047Y-76854819D02*
X248514285Y-76902438D01*
X248514285Y-76902438D02*
X248561904Y-76950057D01*
X248561904Y-76950057D02*
X248609523Y-77045295D01*
X248609523Y-77045295D02*
X248609523Y-77140533D01*
X248609523Y-77140533D02*
X248561904Y-77235771D01*
X248561904Y-77235771D02*
X248514285Y-77283390D01*
X248514285Y-77283390D02*
X248419047Y-77331009D01*
X248419047Y-77331009D02*
X248085714Y-77331009D01*
X248990476Y-76854819D02*
X249657142Y-76854819D01*
X249657142Y-76854819D02*
X248990476Y-77854819D01*
X248990476Y-77854819D02*
X249657142Y-77854819D01*
X250561904Y-77854819D02*
X249990476Y-77854819D01*
X250276190Y-77854819D02*
X250276190Y-76854819D01*
X250276190Y-76854819D02*
X250180952Y-76997676D01*
X250180952Y-76997676D02*
X250085714Y-77092914D01*
X250085714Y-77092914D02*
X249990476Y-77140533D01*
X245109048Y-82133866D02*
X245870953Y-82133866D01*
X245490000Y-82514819D02*
X245490000Y-81752914D01*
D14*
X198455061Y-94088095D02*
X197455061Y-94088095D01*
X197455061Y-94088095D02*
X197455061Y-93850000D01*
X197455061Y-93850000D02*
X197502680Y-93707143D01*
X197502680Y-93707143D02*
X197597918Y-93611905D01*
X197597918Y-93611905D02*
X197693156Y-93564286D01*
X197693156Y-93564286D02*
X197883632Y-93516667D01*
X197883632Y-93516667D02*
X198026489Y-93516667D01*
X198026489Y-93516667D02*
X198216965Y-93564286D01*
X198216965Y-93564286D02*
X198312203Y-93611905D01*
X198312203Y-93611905D02*
X198407442Y-93707143D01*
X198407442Y-93707143D02*
X198455061Y-93850000D01*
X198455061Y-93850000D02*
X198455061Y-94088095D01*
X197550299Y-93135714D02*
X197502680Y-93088095D01*
X197502680Y-93088095D02*
X197455061Y-92992857D01*
X197455061Y-92992857D02*
X197455061Y-92754762D01*
X197455061Y-92754762D02*
X197502680Y-92659524D01*
X197502680Y-92659524D02*
X197550299Y-92611905D01*
X197550299Y-92611905D02*
X197645537Y-92564286D01*
X197645537Y-92564286D02*
X197740775Y-92564286D01*
X197740775Y-92564286D02*
X197883632Y-92611905D01*
X197883632Y-92611905D02*
X198455061Y-93183333D01*
X198455061Y-93183333D02*
X198455061Y-92564286D01*
D11*
X243925536Y-94770687D02*
X244039993Y-94808839D01*
X244039993Y-94808839D02*
X244230754Y-94808839D01*
X244230754Y-94808839D02*
X244307059Y-94770687D01*
X244307059Y-94770687D02*
X244345211Y-94732534D01*
X244345211Y-94732534D02*
X244383363Y-94656230D01*
X244383363Y-94656230D02*
X244383363Y-94579925D01*
X244383363Y-94579925D02*
X244345211Y-94503621D01*
X244345211Y-94503621D02*
X244307059Y-94465469D01*
X244307059Y-94465469D02*
X244230754Y-94427316D01*
X244230754Y-94427316D02*
X244078145Y-94389164D01*
X244078145Y-94389164D02*
X244001841Y-94351012D01*
X244001841Y-94351012D02*
X243963689Y-94312860D01*
X243963689Y-94312860D02*
X243925536Y-94236555D01*
X243925536Y-94236555D02*
X243925536Y-94160251D01*
X243925536Y-94160251D02*
X243963689Y-94083946D01*
X243963689Y-94083946D02*
X244001841Y-94045794D01*
X244001841Y-94045794D02*
X244078145Y-94007642D01*
X244078145Y-94007642D02*
X244268907Y-94007642D01*
X244268907Y-94007642D02*
X244383363Y-94045794D01*
X244650429Y-94007642D02*
X244841190Y-94808839D01*
X244841190Y-94808839D02*
X244993799Y-94236555D01*
X244993799Y-94236555D02*
X245146408Y-94808839D01*
X245146408Y-94808839D02*
X245337170Y-94007642D01*
X246023910Y-94007642D02*
X245642388Y-94007642D01*
X245642388Y-94007642D02*
X245604235Y-94389164D01*
X245604235Y-94389164D02*
X245642388Y-94351012D01*
X245642388Y-94351012D02*
X245718692Y-94312860D01*
X245718692Y-94312860D02*
X245909453Y-94312860D01*
X245909453Y-94312860D02*
X245985758Y-94351012D01*
X245985758Y-94351012D02*
X246023910Y-94389164D01*
X246023910Y-94389164D02*
X246062062Y-94465469D01*
X246062062Y-94465469D02*
X246062062Y-94656230D01*
X246062062Y-94656230D02*
X246023910Y-94732534D01*
X246023910Y-94732534D02*
X245985758Y-94770687D01*
X245985758Y-94770687D02*
X245909453Y-94808839D01*
X245909453Y-94808839D02*
X245718692Y-94808839D01*
X245718692Y-94808839D02*
X245642388Y-94770687D01*
X245642388Y-94770687D02*
X245604235Y-94732534D01*
X204225536Y-109570687D02*
X204339993Y-109608839D01*
X204339993Y-109608839D02*
X204530754Y-109608839D01*
X204530754Y-109608839D02*
X204607059Y-109570687D01*
X204607059Y-109570687D02*
X204645211Y-109532534D01*
X204645211Y-109532534D02*
X204683363Y-109456230D01*
X204683363Y-109456230D02*
X204683363Y-109379925D01*
X204683363Y-109379925D02*
X204645211Y-109303621D01*
X204645211Y-109303621D02*
X204607059Y-109265469D01*
X204607059Y-109265469D02*
X204530754Y-109227316D01*
X204530754Y-109227316D02*
X204378145Y-109189164D01*
X204378145Y-109189164D02*
X204301841Y-109151012D01*
X204301841Y-109151012D02*
X204263689Y-109112860D01*
X204263689Y-109112860D02*
X204225536Y-109036555D01*
X204225536Y-109036555D02*
X204225536Y-108960251D01*
X204225536Y-108960251D02*
X204263689Y-108883946D01*
X204263689Y-108883946D02*
X204301841Y-108845794D01*
X204301841Y-108845794D02*
X204378145Y-108807642D01*
X204378145Y-108807642D02*
X204568907Y-108807642D01*
X204568907Y-108807642D02*
X204683363Y-108845794D01*
X204950429Y-108807642D02*
X205141190Y-109608839D01*
X205141190Y-109608839D02*
X205293799Y-109036555D01*
X205293799Y-109036555D02*
X205446408Y-109608839D01*
X205446408Y-109608839D02*
X205637170Y-108807642D01*
X205866083Y-108807642D02*
X206362062Y-108807642D01*
X206362062Y-108807642D02*
X206094997Y-109112860D01*
X206094997Y-109112860D02*
X206209453Y-109112860D01*
X206209453Y-109112860D02*
X206285758Y-109151012D01*
X206285758Y-109151012D02*
X206323910Y-109189164D01*
X206323910Y-109189164D02*
X206362062Y-109265469D01*
X206362062Y-109265469D02*
X206362062Y-109456230D01*
X206362062Y-109456230D02*
X206323910Y-109532534D01*
X206323910Y-109532534D02*
X206285758Y-109570687D01*
X206285758Y-109570687D02*
X206209453Y-109608839D01*
X206209453Y-109608839D02*
X205980540Y-109608839D01*
X205980540Y-109608839D02*
X205904235Y-109570687D01*
X205904235Y-109570687D02*
X205866083Y-109532534D01*
D15*
X242971520Y-120191190D02*
X242457473Y-120191190D01*
X242457473Y-120191190D02*
X242396997Y-120221428D01*
X242396997Y-120221428D02*
X242366759Y-120251666D01*
X242366759Y-120251666D02*
X242336520Y-120312142D01*
X242336520Y-120312142D02*
X242336520Y-120433095D01*
X242336520Y-120433095D02*
X242366759Y-120493571D01*
X242366759Y-120493571D02*
X242396997Y-120523809D01*
X242396997Y-120523809D02*
X242457473Y-120554047D01*
X242457473Y-120554047D02*
X242971520Y-120554047D01*
X242336520Y-121189047D02*
X242336520Y-120826190D01*
X242336520Y-121007618D02*
X242971520Y-121007618D01*
X242971520Y-121007618D02*
X242880806Y-120947142D01*
X242880806Y-120947142D02*
X242820330Y-120886666D01*
X242820330Y-120886666D02*
X242790092Y-120826190D01*
D11*
X204175536Y-84620687D02*
X204289993Y-84658839D01*
X204289993Y-84658839D02*
X204480754Y-84658839D01*
X204480754Y-84658839D02*
X204557059Y-84620687D01*
X204557059Y-84620687D02*
X204595211Y-84582534D01*
X204595211Y-84582534D02*
X204633363Y-84506230D01*
X204633363Y-84506230D02*
X204633363Y-84429925D01*
X204633363Y-84429925D02*
X204595211Y-84353621D01*
X204595211Y-84353621D02*
X204557059Y-84315469D01*
X204557059Y-84315469D02*
X204480754Y-84277316D01*
X204480754Y-84277316D02*
X204328145Y-84239164D01*
X204328145Y-84239164D02*
X204251841Y-84201012D01*
X204251841Y-84201012D02*
X204213689Y-84162860D01*
X204213689Y-84162860D02*
X204175536Y-84086555D01*
X204175536Y-84086555D02*
X204175536Y-84010251D01*
X204175536Y-84010251D02*
X204213689Y-83933946D01*
X204213689Y-83933946D02*
X204251841Y-83895794D01*
X204251841Y-83895794D02*
X204328145Y-83857642D01*
X204328145Y-83857642D02*
X204518907Y-83857642D01*
X204518907Y-83857642D02*
X204633363Y-83895794D01*
X204900429Y-83857642D02*
X205091190Y-84658839D01*
X205091190Y-84658839D02*
X205243799Y-84086555D01*
X205243799Y-84086555D02*
X205396408Y-84658839D01*
X205396408Y-84658839D02*
X205587170Y-83857642D01*
X206312062Y-84658839D02*
X205854235Y-84658839D01*
X206083149Y-84658839D02*
X206083149Y-83857642D01*
X206083149Y-83857642D02*
X206006844Y-83972098D01*
X206006844Y-83972098D02*
X205930540Y-84048403D01*
X205930540Y-84048403D02*
X205854235Y-84086555D01*
D14*
X249461905Y-122402219D02*
X249461905Y-121402219D01*
X249461905Y-121402219D02*
X249700000Y-121402219D01*
X249700000Y-121402219D02*
X249842857Y-121449838D01*
X249842857Y-121449838D02*
X249938095Y-121545076D01*
X249938095Y-121545076D02*
X249985714Y-121640314D01*
X249985714Y-121640314D02*
X250033333Y-121830790D01*
X250033333Y-121830790D02*
X250033333Y-121973647D01*
X250033333Y-121973647D02*
X249985714Y-122164123D01*
X249985714Y-122164123D02*
X249938095Y-122259361D01*
X249938095Y-122259361D02*
X249842857Y-122354600D01*
X249842857Y-122354600D02*
X249700000Y-122402219D01*
X249700000Y-122402219D02*
X249461905Y-122402219D01*
X250604762Y-121830790D02*
X250509524Y-121783171D01*
X250509524Y-121783171D02*
X250461905Y-121735552D01*
X250461905Y-121735552D02*
X250414286Y-121640314D01*
X250414286Y-121640314D02*
X250414286Y-121592695D01*
X250414286Y-121592695D02*
X250461905Y-121497457D01*
X250461905Y-121497457D02*
X250509524Y-121449838D01*
X250509524Y-121449838D02*
X250604762Y-121402219D01*
X250604762Y-121402219D02*
X250795238Y-121402219D01*
X250795238Y-121402219D02*
X250890476Y-121449838D01*
X250890476Y-121449838D02*
X250938095Y-121497457D01*
X250938095Y-121497457D02*
X250985714Y-121592695D01*
X250985714Y-121592695D02*
X250985714Y-121640314D01*
X250985714Y-121640314D02*
X250938095Y-121735552D01*
X250938095Y-121735552D02*
X250890476Y-121783171D01*
X250890476Y-121783171D02*
X250795238Y-121830790D01*
X250795238Y-121830790D02*
X250604762Y-121830790D01*
X250604762Y-121830790D02*
X250509524Y-121878409D01*
X250509524Y-121878409D02*
X250461905Y-121926028D01*
X250461905Y-121926028D02*
X250414286Y-122021266D01*
X250414286Y-122021266D02*
X250414286Y-122211742D01*
X250414286Y-122211742D02*
X250461905Y-122306980D01*
X250461905Y-122306980D02*
X250509524Y-122354600D01*
X250509524Y-122354600D02*
X250604762Y-122402219D01*
X250604762Y-122402219D02*
X250795238Y-122402219D01*
X250795238Y-122402219D02*
X250890476Y-122354600D01*
X250890476Y-122354600D02*
X250938095Y-122306980D01*
X250938095Y-122306980D02*
X250985714Y-122211742D01*
X250985714Y-122211742D02*
X250985714Y-122021266D01*
X250985714Y-122021266D02*
X250938095Y-121926028D01*
X250938095Y-121926028D02*
X250890476Y-121878409D01*
X250890476Y-121878409D02*
X250795238Y-121830790D01*
D11*
X206213095Y-49007319D02*
X206213095Y-49816842D01*
X206213095Y-49816842D02*
X206260714Y-49912080D01*
X206260714Y-49912080D02*
X206308333Y-49959700D01*
X206308333Y-49959700D02*
X206403571Y-50007319D01*
X206403571Y-50007319D02*
X206594047Y-50007319D01*
X206594047Y-50007319D02*
X206689285Y-49959700D01*
X206689285Y-49959700D02*
X206736904Y-49912080D01*
X206736904Y-49912080D02*
X206784523Y-49816842D01*
X206784523Y-49816842D02*
X206784523Y-49007319D01*
X207213095Y-49102557D02*
X207260714Y-49054938D01*
X207260714Y-49054938D02*
X207355952Y-49007319D01*
X207355952Y-49007319D02*
X207594047Y-49007319D01*
X207594047Y-49007319D02*
X207689285Y-49054938D01*
X207689285Y-49054938D02*
X207736904Y-49102557D01*
X207736904Y-49102557D02*
X207784523Y-49197795D01*
X207784523Y-49197795D02*
X207784523Y-49293033D01*
X207784523Y-49293033D02*
X207736904Y-49435890D01*
X207736904Y-49435890D02*
X207165476Y-50007319D01*
X207165476Y-50007319D02*
X207784523Y-50007319D01*
D14*
X217355061Y-94138095D02*
X216355061Y-94138095D01*
X216355061Y-94138095D02*
X216355061Y-93900000D01*
X216355061Y-93900000D02*
X216402680Y-93757143D01*
X216402680Y-93757143D02*
X216497918Y-93661905D01*
X216497918Y-93661905D02*
X216593156Y-93614286D01*
X216593156Y-93614286D02*
X216783632Y-93566667D01*
X216783632Y-93566667D02*
X216926489Y-93566667D01*
X216926489Y-93566667D02*
X217116965Y-93614286D01*
X217116965Y-93614286D02*
X217212203Y-93661905D01*
X217212203Y-93661905D02*
X217307442Y-93757143D01*
X217307442Y-93757143D02*
X217355061Y-93900000D01*
X217355061Y-93900000D02*
X217355061Y-94138095D01*
X216355061Y-92661905D02*
X216355061Y-93138095D01*
X216355061Y-93138095D02*
X216831251Y-93185714D01*
X216831251Y-93185714D02*
X216783632Y-93138095D01*
X216783632Y-93138095D02*
X216736013Y-93042857D01*
X216736013Y-93042857D02*
X216736013Y-92804762D01*
X216736013Y-92804762D02*
X216783632Y-92709524D01*
X216783632Y-92709524D02*
X216831251Y-92661905D01*
X216831251Y-92661905D02*
X216926489Y-92614286D01*
X216926489Y-92614286D02*
X217164584Y-92614286D01*
X217164584Y-92614286D02*
X217259822Y-92661905D01*
X217259822Y-92661905D02*
X217307442Y-92709524D01*
X217307442Y-92709524D02*
X217355061Y-92804762D01*
X217355061Y-92804762D02*
X217355061Y-93042857D01*
X217355061Y-93042857D02*
X217307442Y-93138095D01*
X217307442Y-93138095D02*
X217259822Y-93185714D01*
D11*
X244025536Y-109570687D02*
X244139993Y-109608839D01*
X244139993Y-109608839D02*
X244330754Y-109608839D01*
X244330754Y-109608839D02*
X244407059Y-109570687D01*
X244407059Y-109570687D02*
X244445211Y-109532534D01*
X244445211Y-109532534D02*
X244483363Y-109456230D01*
X244483363Y-109456230D02*
X244483363Y-109379925D01*
X244483363Y-109379925D02*
X244445211Y-109303621D01*
X244445211Y-109303621D02*
X244407059Y-109265469D01*
X244407059Y-109265469D02*
X244330754Y-109227316D01*
X244330754Y-109227316D02*
X244178145Y-109189164D01*
X244178145Y-109189164D02*
X244101841Y-109151012D01*
X244101841Y-109151012D02*
X244063689Y-109112860D01*
X244063689Y-109112860D02*
X244025536Y-109036555D01*
X244025536Y-109036555D02*
X244025536Y-108960251D01*
X244025536Y-108960251D02*
X244063689Y-108883946D01*
X244063689Y-108883946D02*
X244101841Y-108845794D01*
X244101841Y-108845794D02*
X244178145Y-108807642D01*
X244178145Y-108807642D02*
X244368907Y-108807642D01*
X244368907Y-108807642D02*
X244483363Y-108845794D01*
X244750429Y-108807642D02*
X244941190Y-109608839D01*
X244941190Y-109608839D02*
X245093799Y-109036555D01*
X245093799Y-109036555D02*
X245246408Y-109608839D01*
X245246408Y-109608839D02*
X245437170Y-108807642D01*
X246085758Y-108807642D02*
X245933149Y-108807642D01*
X245933149Y-108807642D02*
X245856844Y-108845794D01*
X245856844Y-108845794D02*
X245818692Y-108883946D01*
X245818692Y-108883946D02*
X245742388Y-108998403D01*
X245742388Y-108998403D02*
X245704235Y-109151012D01*
X245704235Y-109151012D02*
X245704235Y-109456230D01*
X245704235Y-109456230D02*
X245742388Y-109532534D01*
X245742388Y-109532534D02*
X245780540Y-109570687D01*
X245780540Y-109570687D02*
X245856844Y-109608839D01*
X245856844Y-109608839D02*
X246009453Y-109608839D01*
X246009453Y-109608839D02*
X246085758Y-109570687D01*
X246085758Y-109570687D02*
X246123910Y-109532534D01*
X246123910Y-109532534D02*
X246162062Y-109456230D01*
X246162062Y-109456230D02*
X246162062Y-109265469D01*
X246162062Y-109265469D02*
X246123910Y-109189164D01*
X246123910Y-109189164D02*
X246085758Y-109151012D01*
X246085758Y-109151012D02*
X246009453Y-109112860D01*
X246009453Y-109112860D02*
X245856844Y-109112860D01*
X245856844Y-109112860D02*
X245780540Y-109151012D01*
X245780540Y-109151012D02*
X245742388Y-109189164D01*
X245742388Y-109189164D02*
X245704235Y-109265469D01*
D14*
X244249404Y-55855061D02*
X244249404Y-54855061D01*
X244249404Y-54855061D02*
X244487499Y-54855061D01*
X244487499Y-54855061D02*
X244630356Y-54902680D01*
X244630356Y-54902680D02*
X244725594Y-54997918D01*
X244725594Y-54997918D02*
X244773213Y-55093156D01*
X244773213Y-55093156D02*
X244820832Y-55283632D01*
X244820832Y-55283632D02*
X244820832Y-55426489D01*
X244820832Y-55426489D02*
X244773213Y-55616965D01*
X244773213Y-55616965D02*
X244725594Y-55712203D01*
X244725594Y-55712203D02*
X244630356Y-55807442D01*
X244630356Y-55807442D02*
X244487499Y-55855061D01*
X244487499Y-55855061D02*
X244249404Y-55855061D01*
X245677975Y-54855061D02*
X245487499Y-54855061D01*
X245487499Y-54855061D02*
X245392261Y-54902680D01*
X245392261Y-54902680D02*
X245344642Y-54950299D01*
X245344642Y-54950299D02*
X245249404Y-55093156D01*
X245249404Y-55093156D02*
X245201785Y-55283632D01*
X245201785Y-55283632D02*
X245201785Y-55664584D01*
X245201785Y-55664584D02*
X245249404Y-55759822D01*
X245249404Y-55759822D02*
X245297023Y-55807442D01*
X245297023Y-55807442D02*
X245392261Y-55855061D01*
X245392261Y-55855061D02*
X245582737Y-55855061D01*
X245582737Y-55855061D02*
X245677975Y-55807442D01*
X245677975Y-55807442D02*
X245725594Y-55759822D01*
X245725594Y-55759822D02*
X245773213Y-55664584D01*
X245773213Y-55664584D02*
X245773213Y-55426489D01*
X245773213Y-55426489D02*
X245725594Y-55331251D01*
X245725594Y-55331251D02*
X245677975Y-55283632D01*
X245677975Y-55283632D02*
X245582737Y-55236013D01*
X245582737Y-55236013D02*
X245392261Y-55236013D01*
X245392261Y-55236013D02*
X245297023Y-55283632D01*
X245297023Y-55283632D02*
X245249404Y-55331251D01*
X245249404Y-55331251D02*
X245201785Y-55426489D01*
D11*
X219175536Y-97070687D02*
X219289993Y-97108839D01*
X219289993Y-97108839D02*
X219480754Y-97108839D01*
X219480754Y-97108839D02*
X219557059Y-97070687D01*
X219557059Y-97070687D02*
X219595211Y-97032534D01*
X219595211Y-97032534D02*
X219633363Y-96956230D01*
X219633363Y-96956230D02*
X219633363Y-96879925D01*
X219633363Y-96879925D02*
X219595211Y-96803621D01*
X219595211Y-96803621D02*
X219557059Y-96765469D01*
X219557059Y-96765469D02*
X219480754Y-96727316D01*
X219480754Y-96727316D02*
X219328145Y-96689164D01*
X219328145Y-96689164D02*
X219251841Y-96651012D01*
X219251841Y-96651012D02*
X219213689Y-96612860D01*
X219213689Y-96612860D02*
X219175536Y-96536555D01*
X219175536Y-96536555D02*
X219175536Y-96460251D01*
X219175536Y-96460251D02*
X219213689Y-96383946D01*
X219213689Y-96383946D02*
X219251841Y-96345794D01*
X219251841Y-96345794D02*
X219328145Y-96307642D01*
X219328145Y-96307642D02*
X219518907Y-96307642D01*
X219518907Y-96307642D02*
X219633363Y-96345794D01*
X219900429Y-96307642D02*
X220091190Y-97108839D01*
X220091190Y-97108839D02*
X220243799Y-96536555D01*
X220243799Y-96536555D02*
X220396408Y-97108839D01*
X220396408Y-97108839D02*
X220587170Y-96307642D01*
X221235758Y-96574707D02*
X221235758Y-97108839D01*
X221044997Y-96269490D02*
X220854235Y-96841773D01*
X220854235Y-96841773D02*
X221350215Y-96841773D01*
D14*
X198505061Y-114300595D02*
X197505061Y-114300595D01*
X197505061Y-114300595D02*
X197505061Y-114062500D01*
X197505061Y-114062500D02*
X197552680Y-113919643D01*
X197552680Y-113919643D02*
X197647918Y-113824405D01*
X197647918Y-113824405D02*
X197743156Y-113776786D01*
X197743156Y-113776786D02*
X197933632Y-113729167D01*
X197933632Y-113729167D02*
X198076489Y-113729167D01*
X198076489Y-113729167D02*
X198266965Y-113776786D01*
X198266965Y-113776786D02*
X198362203Y-113824405D01*
X198362203Y-113824405D02*
X198457442Y-113919643D01*
X198457442Y-113919643D02*
X198505061Y-114062500D01*
X198505061Y-114062500D02*
X198505061Y-114300595D01*
X197505061Y-113395833D02*
X197505061Y-112776786D01*
X197505061Y-112776786D02*
X197886013Y-113110119D01*
X197886013Y-113110119D02*
X197886013Y-112967262D01*
X197886013Y-112967262D02*
X197933632Y-112872024D01*
X197933632Y-112872024D02*
X197981251Y-112824405D01*
X197981251Y-112824405D02*
X198076489Y-112776786D01*
X198076489Y-112776786D02*
X198314584Y-112776786D01*
X198314584Y-112776786D02*
X198409822Y-112824405D01*
X198409822Y-112824405D02*
X198457442Y-112872024D01*
X198457442Y-112872024D02*
X198505061Y-112967262D01*
X198505061Y-112967262D02*
X198505061Y-113252976D01*
X198505061Y-113252976D02*
X198457442Y-113348214D01*
X198457442Y-113348214D02*
X198409822Y-113395833D01*
X217402219Y-114238094D02*
X216402219Y-114238094D01*
X216402219Y-114238094D02*
X216402219Y-113999999D01*
X216402219Y-113999999D02*
X216449838Y-113857142D01*
X216449838Y-113857142D02*
X216545076Y-113761904D01*
X216545076Y-113761904D02*
X216640314Y-113714285D01*
X216640314Y-113714285D02*
X216830790Y-113666666D01*
X216830790Y-113666666D02*
X216973647Y-113666666D01*
X216973647Y-113666666D02*
X217164123Y-113714285D01*
X217164123Y-113714285D02*
X217259361Y-113761904D01*
X217259361Y-113761904D02*
X217354600Y-113857142D01*
X217354600Y-113857142D02*
X217402219Y-113999999D01*
X217402219Y-113999999D02*
X217402219Y-114238094D01*
X216735552Y-112809523D02*
X217402219Y-112809523D01*
X216354600Y-113047618D02*
X217068885Y-113285713D01*
X217068885Y-113285713D02*
X217068885Y-112666666D01*
D16*
%TO.C,SW2*%
X189500000Y-98100000D02*
X201500000Y-98100000D01*
X189500000Y-100305000D02*
X189500000Y-98100000D01*
X189500000Y-102895000D02*
X189500000Y-105305000D01*
X189500000Y-107900000D02*
X189500000Y-110100000D01*
X189500000Y-110100000D02*
X201500000Y-110100000D01*
X201500000Y-98100000D02*
X201500000Y-100305000D01*
X201500000Y-102895000D02*
X201500000Y-105305000D01*
X201500000Y-110100000D02*
X201500000Y-107900000D01*
D14*
X188600000Y-99600000D02*
G75*
G02*
X188400000Y-99600000I-100000J0D01*
G01*
X188400000Y-99600000D02*
G75*
G02*
X188600000Y-99600000I100000J0D01*
G01*
D17*
%TO.C,BZ1*%
X255400000Y-84600000D02*
G75*
G02*
X243200000Y-84600000I-6100000J0D01*
G01*
X243200000Y-84600000D02*
G75*
G02*
X255400000Y-84600000I6100000J0D01*
G01*
D16*
%TO.C,SW5*%
X244200000Y-95750000D02*
X256200000Y-95750000D01*
X244200000Y-97955000D02*
X244200000Y-95750000D01*
X244200000Y-100545000D02*
X244200000Y-102955000D01*
X244200000Y-105550000D02*
X244200000Y-107750000D01*
X244200000Y-107750000D02*
X256200000Y-107750000D01*
X256200000Y-95750000D02*
X256200000Y-97955000D01*
X256200000Y-100545000D02*
X256200000Y-102955000D01*
X256200000Y-107750000D02*
X256200000Y-105550000D01*
D14*
X243300000Y-97250000D02*
G75*
G02*
X243100000Y-97250000I-100000J0D01*
G01*
X243100000Y-97250000D02*
G75*
G02*
X243300000Y-97250000I100000J0D01*
G01*
D16*
%TO.C,SW3*%
X204500000Y-110550000D02*
X216500000Y-110550000D01*
X204500000Y-112755000D02*
X204500000Y-110550000D01*
X204500000Y-115345000D02*
X204500000Y-117755000D01*
X204500000Y-120350000D02*
X204500000Y-122550000D01*
X204500000Y-122550000D02*
X216500000Y-122550000D01*
X216500000Y-110550000D02*
X216500000Y-112755000D01*
X216500000Y-115345000D02*
X216500000Y-117755000D01*
X216500000Y-122550000D02*
X216500000Y-120350000D01*
D14*
X203600000Y-112050000D02*
G75*
G02*
X203400000Y-112050000I-100000J0D01*
G01*
X203400000Y-112050000D02*
G75*
G02*
X203600000Y-112050000I100000J0D01*
G01*
D16*
%TO.C,U1*%
X223460000Y-112441000D02*
X223460000Y-129586000D01*
D10*
X225365000Y-131491000D02*
X239335000Y-131491000D01*
X225365000Y-131491000D02*
X239335000Y-131491000D01*
D16*
X225365000Y-131491000D02*
X239335000Y-131491000D01*
X227846000Y-132501000D02*
X227846000Y-131491000D01*
X236341272Y-133001000D02*
X228346000Y-133001000D01*
X236845000Y-131491000D02*
X236841272Y-132501272D01*
X239335000Y-110536000D02*
X225365000Y-110536000D01*
X241240000Y-112441000D02*
X241240000Y-129586000D01*
X223460000Y-112441000D02*
G75*
G02*
X225365000Y-110536000I1905001J-1D01*
G01*
X225365000Y-131491000D02*
G75*
G02*
X223460000Y-129586000I0J1905000D01*
G01*
X228346000Y-133001000D02*
G75*
G02*
X227846000Y-132501000I0J500000D01*
G01*
X236841272Y-132501272D02*
G75*
G02*
X236341272Y-133000972I-499972J272D01*
G01*
X239335000Y-110536000D02*
G75*
G02*
X241240000Y-112441000I-1J-1905001D01*
G01*
X241240000Y-129586000D02*
G75*
G02*
X239335000Y-131491000I-1905000J0D01*
G01*
D18*
X240459000Y-130320000D02*
G75*
G02*
X239955000Y-130320000I-252000J0D01*
G01*
X239955000Y-130320000D02*
G75*
G02*
X240459000Y-130320000I252000J0D01*
G01*
X241602000Y-131200000D02*
G75*
G02*
X241098000Y-131200000I-252000J0D01*
G01*
X241098000Y-131200000D02*
G75*
G02*
X241602000Y-131200000I252000J0D01*
G01*
D16*
%TO.C,SW1*%
X204450000Y-85600000D02*
X216450000Y-85600000D01*
X204450000Y-87805000D02*
X204450000Y-85600000D01*
X204450000Y-90395000D02*
X204450000Y-92805000D01*
X204450000Y-95400000D02*
X204450000Y-97600000D01*
X204450000Y-97600000D02*
X216450000Y-97600000D01*
X216450000Y-85600000D02*
X216450000Y-87805000D01*
X216450000Y-90395000D02*
X216450000Y-92805000D01*
X216450000Y-97600000D02*
X216450000Y-95400000D01*
D14*
X203550000Y-87100000D02*
G75*
G02*
X203350000Y-87100000I-100000J0D01*
G01*
X203350000Y-87100000D02*
G75*
G02*
X203550000Y-87100000I100000J0D01*
G01*
D16*
%TO.C,U2*%
X203800000Y-50587500D02*
X239300000Y-50587500D01*
X203800000Y-84287500D02*
X203800000Y-50587500D01*
X239300000Y-50587500D02*
X239300000Y-84287500D01*
X239300000Y-84287500D02*
X203800000Y-84287500D01*
D14*
X217840000Y-50037500D02*
G75*
G02*
X217640000Y-50037500I-100000J0D01*
G01*
X217640000Y-50037500D02*
G75*
G02*
X217840000Y-50037500I100000J0D01*
G01*
D16*
%TO.C,SW6*%
X244300000Y-110550000D02*
X256300000Y-110550000D01*
X244300000Y-112755000D02*
X244300000Y-110550000D01*
X244300000Y-115345000D02*
X244300000Y-117755000D01*
X244300000Y-120350000D02*
X244300000Y-122550000D01*
X244300000Y-122550000D02*
X256300000Y-122550000D01*
X256300000Y-110550000D02*
X256300000Y-112755000D01*
X256300000Y-115345000D02*
X256300000Y-117755000D01*
X256300000Y-122550000D02*
X256300000Y-120350000D01*
D14*
X243400000Y-112050000D02*
G75*
G02*
X243200000Y-112050000I-100000J0D01*
G01*
X243200000Y-112050000D02*
G75*
G02*
X243400000Y-112050000I100000J0D01*
G01*
D16*
%TO.C,SW4*%
X219450000Y-98050000D02*
X231450000Y-98050000D01*
X219450000Y-100255000D02*
X219450000Y-98050000D01*
X219450000Y-102845000D02*
X219450000Y-105255000D01*
X219450000Y-107850000D02*
X219450000Y-110050000D01*
X219450000Y-110050000D02*
X231450000Y-110050000D01*
X231450000Y-98050000D02*
X231450000Y-100255000D01*
X231450000Y-102845000D02*
X231450000Y-105255000D01*
X231450000Y-110050000D02*
X231450000Y-107850000D01*
D14*
X218550000Y-99550000D02*
G75*
G02*
X218350000Y-99550000I-100000J0D01*
G01*
X218350000Y-99550000D02*
G75*
G02*
X218550000Y-99550000I100000J0D01*
G01*
%TD*%
M02*
