%TF.GenerationSoftware,KiCad,Pcbnew,9.0.6*%
%TF.CreationDate,2026-04-29T19:41:36+05:30*%
%TF.ProjectId,Tamagotchi,54616d61-676f-4746-9368-692e6b696361,rev?*%
%TF.SameCoordinates,Original*%
%TF.FileFunction,Soldermask,Bot*%
%TF.FilePolarity,Negative*%
%FSLAX46Y46*%
G04 Gerber Fmt 4.6, Leading zero omitted, Abs format (unit mm)*
G04 Created by KiCad (PCBNEW 9.0.6) date 2026-04-29 19:41:36*
%MOMM*%
%LPD*%
G01*
G04 APERTURE LIST*
G04 Aperture macros list*
%AMRoundRect*
0 Rectangle with rounded corners*
0 $1 Rounding radius*
0 $2 $3 $4 $5 $6 $7 $8 $9 X,Y pos of 4 corners*
0 Add a 4 corners polygon primitive as box body*
4,1,4,$2,$3,$4,$5,$6,$7,$8,$9,$2,$3,0*
0 Add four circle primitives for the rounded corners*
1,1,$1+$1,$2,$3*
1,1,$1+$1,$4,$5*
1,1,$1+$1,$6,$7*
1,1,$1+$1,$8,$9*
0 Add four rect primitives between the rounded corners*
20,1,$1+$1,$2,$3,$4,$5,0*
20,1,$1+$1,$4,$5,$6,$7,0*
20,1,$1+$1,$6,$7,$8,$9,0*
20,1,$1+$1,$8,$9,$2,$3,0*%
G04 Aperture macros list end*
%ADD10RoundRect,0.082000X-0.718000X0.328000X-0.718000X-0.328000X0.718000X-0.328000X0.718000X0.328000X0*%
%ADD11RoundRect,0.102000X-0.975000X-0.975000X0.975000X-0.975000X0.975000X0.975000X-0.975000X0.975000X0*%
%ADD12C,2.154000*%
%ADD13C,3.200000*%
%ADD14R,2.000000X2.000000*%
%ADD15C,2.000000*%
%ADD16RoundRect,0.082000X-0.328000X-0.718000X0.328000X-0.718000X0.328000X0.718000X-0.328000X0.718000X0*%
%ADD17C,1.524000*%
%ADD18C,3.000000*%
%ADD19RoundRect,0.102000X-0.754000X-0.754000X0.754000X-0.754000X0.754000X0.754000X-0.754000X0.754000X0*%
%ADD20C,1.712000*%
%ADD21R,1.700000X1.700000*%
%ADD22C,1.700000*%
G04 APERTURE END LIST*
D10*
%TO.C,D7*%
X247787500Y-92700000D03*
X247787500Y-94200000D03*
X252987500Y-94200000D03*
X252987500Y-92700000D03*
%TD*%
D11*
%TO.C,SW2*%
X189250000Y-101600000D03*
D12*
X201750000Y-101600000D03*
X189250000Y-106600000D03*
X201750000Y-106600000D03*
%TD*%
D13*
%TO.C,REF\u002A\u002A*%
X253050000Y-74550000D03*
%TD*%
D10*
%TO.C,D1*%
X195600001Y-57697158D03*
X195600001Y-59197158D03*
X200800001Y-59197158D03*
X200800001Y-57697158D03*
%TD*%
D14*
%TO.C,BZ1*%
X245500000Y-84600000D03*
D15*
X253100000Y-84600000D03*
%TD*%
D13*
%TO.C,REF\u002A\u002A*%
X189800000Y-74550000D03*
%TD*%
D16*
%TO.C,D2*%
X200250000Y-96550000D03*
X201750000Y-96550000D03*
X201750000Y-91350000D03*
X200250000Y-91350000D03*
%TD*%
D11*
%TO.C,SW5*%
X243950000Y-99250000D03*
D12*
X256450000Y-99250000D03*
X243950000Y-104250000D03*
X256450000Y-104250000D03*
%TD*%
D11*
%TO.C,SW3*%
X204250000Y-114050000D03*
D12*
X216750000Y-114050000D03*
X204250000Y-119050000D03*
X216750000Y-119050000D03*
%TD*%
D17*
%TO.C,U1*%
X239970000Y-128570000D03*
X239970000Y-126030000D03*
X239970000Y-123490000D03*
X239970000Y-120950000D03*
X239970000Y-118410000D03*
X239970000Y-115870000D03*
X239970000Y-113330000D03*
X224730000Y-113330000D03*
X224730000Y-115870000D03*
X224730000Y-118410000D03*
X224730000Y-120950000D03*
X224730000Y-123490000D03*
X224730000Y-126030000D03*
X224730000Y-128570000D03*
%TD*%
D11*
%TO.C,SW1*%
X204200000Y-89100000D03*
D12*
X216700000Y-89100000D03*
X204200000Y-94100000D03*
X216700000Y-94100000D03*
%TD*%
D10*
%TO.C,D8*%
X247000001Y-124197158D03*
X247000001Y-125697158D03*
X252200001Y-125697158D03*
X252200001Y-124197158D03*
%TD*%
D18*
%TO.C,U2*%
X205800000Y-52587500D03*
X205800000Y-82287500D03*
X237300000Y-52587500D03*
X237300000Y-82287500D03*
D19*
X217740000Y-51887500D03*
D20*
X220280000Y-51887500D03*
X222820000Y-51887500D03*
X225360000Y-51887500D03*
%TD*%
D16*
%TO.C,D5*%
X219150000Y-96600000D03*
X220650000Y-96600000D03*
X220650000Y-91400000D03*
X219150000Y-91400000D03*
%TD*%
D11*
%TO.C,SW6*%
X244050000Y-114050000D03*
D12*
X256550000Y-114050000D03*
X244050000Y-119050000D03*
X256550000Y-119050000D03*
%TD*%
D10*
%TO.C,D6*%
X241787500Y-57650000D03*
X241787500Y-59150000D03*
X246987500Y-59150000D03*
X246987500Y-57650000D03*
%TD*%
D11*
%TO.C,SW4*%
X219200000Y-101550000D03*
D12*
X231700000Y-101550000D03*
X219200000Y-106550000D03*
X231700000Y-106550000D03*
%TD*%
D16*
%TO.C,D3*%
X200300000Y-116762500D03*
X201800000Y-116762500D03*
X201800000Y-111562500D03*
X200300000Y-111562500D03*
%TD*%
D13*
%TO.C,REF\u002A\u002A*%
X214650000Y-126650000D03*
%TD*%
D16*
%TO.C,D4*%
X219197158Y-116699999D03*
X220697158Y-116699999D03*
X220697158Y-111499999D03*
X219197158Y-111499999D03*
%TD*%
D21*
%TO.C,BT1*%
X197300000Y-68490000D03*
D22*
X197300000Y-65950000D03*
%TD*%
M02*
