%TF.GenerationSoftware,KiCad,Pcbnew,9.0.6*%
%TF.CreationDate,2026-04-29T19:41:40+05:30*%
%TF.ProjectId,Tamagotchi,54616d61-676f-4746-9368-692e6b696361,rev?*%
%TF.SameCoordinates,Original*%
%TF.FileFunction,Plated,1,2,PTH,Drill*%
%TF.FilePolarity,Positive*%
%FSLAX46Y46*%
G04 Gerber Fmt 4.6, Leading zero omitted, Abs format (unit mm)*
G04 Created by KiCad (PCBNEW 9.0.6) date 2026-04-29 19:41:40*
%MOMM*%
%LPD*%
G01*
G04 APERTURE LIST*
%TA.AperFunction,ViaDrill*%
%ADD10C,0.300000*%
%TD*%
%TA.AperFunction,ComponentDrill*%
%ADD11C,0.889000*%
%TD*%
%TA.AperFunction,ComponentDrill*%
%ADD12C,1.000000*%
%TD*%
%TA.AperFunction,ComponentDrill*%
%ADD13C,1.300000*%
%TD*%
G04 APERTURE END LIST*
D10*
X202450000Y-118400000D03*
X212400000Y-114650000D03*
X212799000Y-113450000D03*
X214700000Y-68400000D03*
X216950000Y-98650000D03*
X219550000Y-109750000D03*
X220400000Y-124240000D03*
X220900000Y-118450000D03*
X220950000Y-109450000D03*
X221350000Y-98550000D03*
X222250000Y-91350000D03*
X224760000Y-57700000D03*
X224760000Y-101550000D03*
X227437698Y-89137698D03*
X228879765Y-104970235D03*
X242550000Y-122550000D03*
X244350000Y-116600000D03*
X244350000Y-121550000D03*
D11*
%TO.C,U1*%
X224730000Y-113330000D03*
X224730000Y-115870000D03*
X224730000Y-118410000D03*
X224730000Y-120950000D03*
X224730000Y-123490000D03*
X224730000Y-126030000D03*
X224730000Y-128570000D03*
X239970000Y-113330000D03*
X239970000Y-115870000D03*
X239970000Y-118410000D03*
X239970000Y-120950000D03*
X239970000Y-123490000D03*
X239970000Y-126030000D03*
X239970000Y-128570000D03*
D12*
%TO.C,BT1*%
X197300000Y-65950000D03*
X197300000Y-68490000D03*
%TO.C,U2*%
X217740000Y-51887500D03*
X220280000Y-51887500D03*
X222820000Y-51887500D03*
X225360000Y-51887500D03*
%TO.C,BZ1*%
X245500000Y-84600000D03*
X253100000Y-84600000D03*
D13*
%TO.C,SW2*%
X189250000Y-101600000D03*
X189250000Y-106600000D03*
X201750000Y-101600000D03*
X201750000Y-106600000D03*
%TO.C,SW1*%
X204200000Y-89100000D03*
X204200000Y-94100000D03*
%TO.C,SW3*%
X204250000Y-114050000D03*
X204250000Y-119050000D03*
%TO.C,SW1*%
X216700000Y-89100000D03*
X216700000Y-94100000D03*
%TO.C,SW3*%
X216750000Y-114050000D03*
X216750000Y-119050000D03*
%TO.C,SW4*%
X219200000Y-101550000D03*
X219200000Y-106550000D03*
X231700000Y-101550000D03*
X231700000Y-106550000D03*
%TO.C,SW5*%
X243950000Y-99250000D03*
X243950000Y-104250000D03*
%TO.C,SW6*%
X244050000Y-114050000D03*
X244050000Y-119050000D03*
%TO.C,SW5*%
X256450000Y-99250000D03*
X256450000Y-104250000D03*
%TO.C,SW6*%
X256550000Y-114050000D03*
X256550000Y-119050000D03*
M02*
