%TF.GenerationSoftware,KiCad,Pcbnew,9.0.6*%
%TF.CreationDate,2026-04-29T19:41:36+05:30*%
%TF.ProjectId,Tamagotchi,54616d61-676f-4746-9368-692e6b696361,rev?*%
%TF.SameCoordinates,Original*%
%TF.FileFunction,Legend,Bot*%
%TF.FilePolarity,Positive*%
%FSLAX46Y46*%
G04 Gerber Fmt 4.6, Leading zero omitted, Abs format (unit mm)*
G04 Created by KiCad (PCBNEW 9.0.6) date 2026-04-29 19:41:36*
%MOMM*%
%LPD*%
G01*
G04 APERTURE LIST*
%ADD10C,0.150000*%
%ADD11C,0.100000*%
%ADD12C,0.120000*%
G04 APERTURE END LIST*
D10*
X198085714Y-70801009D02*
X197942857Y-70848628D01*
X197942857Y-70848628D02*
X197895238Y-70896247D01*
X197895238Y-70896247D02*
X197847619Y-70991485D01*
X197847619Y-70991485D02*
X197847619Y-71134342D01*
X197847619Y-71134342D02*
X197895238Y-71229580D01*
X197895238Y-71229580D02*
X197942857Y-71277200D01*
X197942857Y-71277200D02*
X198038095Y-71324819D01*
X198038095Y-71324819D02*
X198419047Y-71324819D01*
X198419047Y-71324819D02*
X198419047Y-70324819D01*
X198419047Y-70324819D02*
X198085714Y-70324819D01*
X198085714Y-70324819D02*
X197990476Y-70372438D01*
X197990476Y-70372438D02*
X197942857Y-70420057D01*
X197942857Y-70420057D02*
X197895238Y-70515295D01*
X197895238Y-70515295D02*
X197895238Y-70610533D01*
X197895238Y-70610533D02*
X197942857Y-70705771D01*
X197942857Y-70705771D02*
X197990476Y-70753390D01*
X197990476Y-70753390D02*
X198085714Y-70801009D01*
X198085714Y-70801009D02*
X198419047Y-70801009D01*
X197561904Y-70324819D02*
X196990476Y-70324819D01*
X197276190Y-71324819D02*
X197276190Y-70324819D01*
X196133333Y-71324819D02*
X196704761Y-71324819D01*
X196419047Y-71324819D02*
X196419047Y-70324819D01*
X196419047Y-70324819D02*
X196514285Y-70467676D01*
X196514285Y-70467676D02*
X196609523Y-70562914D01*
X196609523Y-70562914D02*
X196704761Y-70610533D01*
D11*
%TO.C,D7*%
X254587500Y-95350000D02*
X253687500Y-95350000D01*
X254587500Y-94450000D01*
X254587500Y-95350000D01*
G36*
X254587500Y-95350000D02*
G01*
X253687500Y-95350000D01*
X254587500Y-94450000D01*
X254587500Y-95350000D01*
G37*
%TO.C,D1*%
X202400001Y-60347158D02*
X201500001Y-60347158D01*
X202400001Y-59447158D01*
X202400001Y-60347158D01*
G36*
X202400001Y-60347158D02*
G01*
X201500001Y-60347158D01*
X202400001Y-59447158D01*
X202400001Y-60347158D01*
G37*
%TO.C,D2*%
X202900000Y-90650000D02*
X202000000Y-89750000D01*
X202900000Y-89750000D01*
X202900000Y-90650000D01*
G36*
X202900000Y-90650000D02*
G01*
X202000000Y-89750000D01*
X202900000Y-89750000D01*
X202900000Y-90650000D01*
G37*
%TO.C,D8*%
X253800001Y-126847158D02*
X252900001Y-126847158D01*
X253800001Y-125947158D01*
X253800001Y-126847158D01*
G36*
X253800001Y-126847158D02*
G01*
X252900001Y-126847158D01*
X253800001Y-125947158D01*
X253800001Y-126847158D01*
G37*
%TO.C,D5*%
X221800000Y-90700000D02*
X220900000Y-89800000D01*
X221800000Y-89800000D01*
X221800000Y-90700000D01*
G36*
X221800000Y-90700000D02*
G01*
X220900000Y-89800000D01*
X221800000Y-89800000D01*
X221800000Y-90700000D01*
G37*
%TO.C,D6*%
X248587500Y-60300000D02*
X247687500Y-60300000D01*
X248587500Y-59400000D01*
X248587500Y-60300000D01*
G36*
X248587500Y-60300000D02*
G01*
X247687500Y-60300000D01*
X248587500Y-59400000D01*
X248587500Y-60300000D01*
G37*
%TO.C,D3*%
X202950000Y-110862500D02*
X202050000Y-109962500D01*
X202950000Y-109962500D01*
X202950000Y-110862500D01*
G36*
X202950000Y-110862500D02*
G01*
X202050000Y-109962500D01*
X202950000Y-109962500D01*
X202950000Y-110862500D01*
G37*
%TO.C,D4*%
X221847158Y-110799999D02*
X220947158Y-109899999D01*
X221847158Y-109899999D01*
X221847158Y-110799999D01*
G36*
X221847158Y-110799999D02*
G01*
X220947158Y-109899999D01*
X221847158Y-109899999D01*
X221847158Y-110799999D01*
G37*
D12*
%TO.C,BT1*%
X195920000Y-64570000D02*
X198680000Y-64570000D01*
X195920000Y-67220000D02*
X195920000Y-64570000D01*
X195920000Y-67220000D02*
X198680000Y-67220000D01*
X195920000Y-68490000D02*
X195920000Y-69870000D01*
X195920000Y-69870000D02*
X197300000Y-69870000D01*
X198680000Y-67220000D02*
X198680000Y-64570000D01*
%TD*%
M02*
